solid OpenSCAD_Model
  facet normal -0.587837 -0.808979 0
    outer loop
      vertex -21.1629 -11.2904 0
      vertex -20.3003 -11.9172 6
      vertex -21.1629 -11.2904 6
    endloop
  endfacet
  facet normal -0.587837 -0.808979 -0
    outer loop
      vertex -20.3003 -11.9172 6
      vertex -21.1629 -11.2904 0
      vertex -20.3003 -11.9172 0
    endloop
  endfacet
  facet normal 0 1 -0
    outer loop
      vertex 21.0094 12.5854 0
      vertex -20.515 12.5854 6
      vertex 21.0094 12.5854 6
    endloop
  endfacet
  facet normal 0 1 0
    outer loop
      vertex -20.515 12.5854 6
      vertex 21.0094 12.5854 0
      vertex -20.515 12.5854 0
    endloop
  endfacet
  facet normal -0.207915 -0.978147 0
    outer loop
      vertex -19.3261 -12.3509 0
      vertex -18.2831 -12.5726 6
      vertex -19.3261 -12.3509 6
    endloop
  endfacet
  facet normal -0.207915 -0.978147 -0
    outer loop
      vertex -18.2831 -12.5726 6
      vertex -19.3261 -12.3509 0
      vertex -18.2831 -12.5726 0
    endloop
  endfacet
  facet normal -0.999995 0.00314449 0
    outer loop
      vertex -22.85 -7.50508 0
      vertex -22.7918 11.0034 6
      vertex -22.7918 11.0034 0
    endloop
  endfacet
  facet normal -0.999995 0.00314449 0
    outer loop
      vertex -22.7918 11.0034 6
      vertex -22.85 -7.50508 0
      vertex -22.85 -7.50508 6
    endloop
  endfacet
  facet normal 0.970942 0.239315 0
    outer loop
      vertex 22.85 10.5121 6
      vertex 22.6121 11.4773 0
      vertex 22.6121 11.4773 6
    endloop
  endfacet
  facet normal 0.970942 0.239315 0
    outer loop
      vertex 22.6121 11.4773 0
      vertex 22.85 10.5121 6
      vertex 22.85 10.5121 0
    endloop
  endfacet
  facet normal -0.568063 0.822985 0
    outer loop
      vertex -21.4957 12.4663 0
      vertex -22.3241 11.8945 6
      vertex -21.4957 12.4663 6
    endloop
  endfacet
  facet normal -0.568063 0.822985 0
    outer loop
      vertex -22.3241 11.8945 6
      vertex -21.4957 12.4663 0
      vertex -22.3241 11.8945 0
    endloop
  endfacet
  facet normal -0.120558 0.992706 0
    outer loop
      vertex -20.515 12.5854 0
      vertex -21.4957 12.4663 6
      vertex -20.515 12.5854 6
    endloop
  endfacet
  facet normal -0.120558 0.992706 0
    outer loop
      vertex -21.4957 12.4663 6
      vertex -20.515 12.5854 0
      vertex -21.4957 12.4663 0
    endloop
  endfacet
  facet normal 1 -0 0
    outer loop
      vertex 22.85 -0.370998 6
      vertex 22.85 10.5121 0
      vertex 22.85 10.5121 6
    endloop
  endfacet
  facet normal 1 0 0
    outer loop
      vertex 22.85 10.5121 0
      vertex 22.85 -0.370998 6
      vertex 22.85 -0.370998 0
    endloop
  endfacet
  facet normal -0.743136 -0.669141 0
    outer loop
      vertex -21.1629 -11.2904 0
      vertex -21.8764 -10.498 6
      vertex -21.8764 -10.498 0
    endloop
  endfacet
  facet normal -0.743136 -0.669141 0
    outer loop
      vertex -21.8764 -10.498 6
      vertex -21.1629 -11.2904 0
      vertex -21.1629 -11.2904 6
    endloop
  endfacet
  facet normal -0.406704 -0.91356 0
    outer loop
      vertex -20.3003 -11.9172 0
      vertex -19.3261 -12.3509 6
      vertex -20.3003 -11.9172 6
    endloop
  endfacet
  facet normal -0.406704 -0.91356 -0
    outer loop
      vertex -19.3261 -12.3509 6
      vertex -20.3003 -11.9172 0
      vertex -19.3261 -12.3509 0
    endloop
  endfacet
  facet normal -0.88545 0.464735 0
    outer loop
      vertex -22.7918 11.0034 0
      vertex -22.3241 11.8945 6
      vertex -22.3241 11.8945 0
    endloop
  endfacet
  facet normal -0.88545 0.464735 0
    outer loop
      vertex -22.3241 11.8945 6
      vertex -22.7918 11.0034 0
      vertex -22.7918 11.0034 6
    endloop
  endfacet
  facet normal -0.866002 -0.50004 0
    outer loop
      vertex -21.8764 -10.498 0
      vertex -22.4096 -9.57457 6
      vertex -22.4096 -9.57457 0
    endloop
  endfacet
  facet normal -0.866002 -0.50004 0
    outer loop
      vertex -22.4096 -9.57457 6
      vertex -21.8764 -10.498 0
      vertex -21.8764 -10.498 6
    endloop
  endfacet
  facet normal 0.748488 0.663148 0
    outer loop
      vertex 22.6121 11.4773 6
      vertex 21.9446 12.2307 0
      vertex 21.9446 12.2307 6
    endloop
  endfacet
  facet normal 0.748488 0.663148 0
    outer loop
      vertex 21.9446 12.2307 0
      vertex 22.6121 11.4773 6
      vertex 22.6121 11.4773 0
    endloop
  endfacet
  facet normal -0.951058 -0.309013 0
    outer loop
      vertex -22.4096 -9.57457 0
      vertex -22.7391 -8.56046 6
      vertex -22.7391 -8.56046 0
    endloop
  endfacet
  facet normal -0.951058 -0.309013 0
    outer loop
      vertex -22.7391 -8.56046 6
      vertex -22.4096 -9.57457 0
      vertex -22.4096 -9.57457 6
    endloop
  endfacet
  facet normal 0 -1 0
    outer loop
      vertex -18.2831 -12.5726 0
      vertex 12.5724 -12.5726 6
      vertex -18.2831 -12.5726 6
    endloop
  endfacet
  facet normal 0 -1 -0
    outer loop
      vertex 12.5724 -12.5726 6
      vertex -18.2831 -12.5726 0
      vertex 12.5724 -12.5726 0
    endloop
  endfacet
  facet normal 0.354627 0.935008 -0
    outer loop
      vertex 21.9446 12.2307 0
      vertex 21.0094 12.5854 6
      vertex 21.9446 12.2307 6
    endloop
  endfacet
  facet normal 0.354627 0.935008 0
    outer loop
      vertex 21.0094 12.5854 6
      vertex 21.9446 12.2307 0
      vertex 21.0094 12.5854 0
    endloop
  endfacet
  facet normal -0 0 1
    outer loop
      vertex 21.5177 10.903 6
      vertex 22.85 10.5121 6
      vertex 22.6121 11.4773 6
    endloop
  endfacet
  facet normal 0 0 1
    outer loop
      vertex 21.5177 10.903 6
      vertex 22.6121 11.4773 6
      vertex 21.9446 12.2307 6
    endloop
  endfacet
  facet normal 0 0 1
    outer loop
      vertex 21.65 0.472728 6
      vertex 22.85 10.5121 6
      vertex 21.65 10.3664 6
    endloop
  endfacet
  facet normal 0 0 1
    outer loop
      vertex 22.85 10.5121 6
      vertex 21.75 0.428203 6
      vertex 22.85 -0.370998 6
    endloop
  endfacet
  facet normal 0 0 1
    outer loop
      vertex 22.85 10.5121 6
      vertex 21.5177 10.903 6
      vertex 21.65 10.3664 6
    endloop
  endfacet
  facet normal 0 0 1
    outer loop
      vertex 21.9446 12.2307 6
      vertex 21.2426 11.2136 6
      vertex 21.5177 10.903 6
    endloop
  endfacet
  facet normal 0 0 1
    outer loop
      vertex 21.0094 12.5854 6
      vertex 21.2426 11.2136 6
      vertex 21.9446 12.2307 6
    endloop
  endfacet
  facet normal 0 0 1
    outer loop
      vertex 21.0094 12.5854 6
      vertex 20.7895 11.3854 6
      vertex 21.2426 11.2136 6
    endloop
  endfacet
  facet normal -0 0 1
    outer loop
      vertex -20.515 12.5854 6
      vertex 20.7895 11.3854 6
      vertex 21.0094 12.5854 6
    endloop
  endfacet
  facet normal 0 0 1
    outer loop
      vertex 20.7895 11.3854 6
      vertex -20.515 12.5854 6
      vertex -20.4424 11.3854 6
    endloop
  endfacet
  facet normal 0 0 1
    outer loop
      vertex -20.515 12.5854 6
      vertex -21.0575 11.3107 6
      vertex -20.4424 11.3854 6
    endloop
  endfacet
  facet normal -0 0 1
    outer loop
      vertex -21.4957 12.4663 6
      vertex -21.0575 11.3107 6
      vertex -20.515 12.5854 6
    endloop
  endfacet
  facet normal 0 0 1
    outer loop
      vertex -21.0575 11.3107 6
      vertex -21.4957 12.4663 6
      vertex -21.399 11.075 6
    endloop
  endfacet
  facet normal -0 0 1
    outer loop
      vertex -22.3241 11.8945 6
      vertex -21.399 11.075 6
      vertex -21.4957 12.4663 6
    endloop
  endfacet
  facet normal 0 0 1
    outer loop
      vertex -22.85 -7.50508 6
      vertex -21.6498 -7.44398 6
      vertex -21.5927 10.7059 6
    endloop
  endfacet
  facet normal 0 0 1
    outer loop
      vertex -21.399 11.075 6
      vertex -22.3241 11.8945 6
      vertex -21.5927 10.7059 6
    endloop
  endfacet
  facet normal -0 0 1
    outer loop
      vertex -22.7918 11.0034 6
      vertex -21.5927 10.7059 6
      vertex -22.3241 11.8945 6
    endloop
  endfacet
  facet normal 0 -0 1
    outer loop
      vertex -22.7391 -8.56046 6
      vertex -21.6498 -7.44398 6
      vertex -22.85 -7.50508 6
    endloop
  endfacet
  facet normal 0 0 1
    outer loop
      vertex -21.6498 -7.44398 6
      vertex -22.4096 -9.57457 6
      vertex -21.8764 -10.498 6
    endloop
  endfacet
  facet normal 0 0 1
    outer loop
      vertex -21.5927 10.7059 6
      vertex -22.7918 11.0034 6
      vertex -22.85 -7.50508 6
    endloop
  endfacet
  facet normal 0 0 1
    outer loop
      vertex -21.6498 -7.44398 6
      vertex -22.7391 -8.56046 6
      vertex -22.4096 -9.57457 6
    endloop
  endfacet
  facet normal 0 0 1
    outer loop
      vertex 22.85 10.5121 6
      vertex 21.65 0.472728 6
      vertex 21.75 0.428203 6
    endloop
  endfacet
  facet normal 0 0 1
    outer loop
      vertex -18.2831 -12.5726 6
      vertex 11.4312 -11.3726 6
      vertex -18.1571 -11.3726 6
    endloop
  endfacet
  facet normal 0 0 1
    outer loop
      vertex 11.4312 -11.3726 6
      vertex -18.2831 -12.5726 6
      vertex 12.397 -12.4452 6
    endloop
  endfacet
  facet normal 0 0 1
    outer loop
      vertex 12.397 -12.4452 6
      vertex -18.2831 -12.5726 6
      vertex 12.5724 -12.5726 6
    endloop
  endfacet
  facet normal 0 0 1
    outer loop
      vertex -18.9533 -11.2034 6
      vertex -18.2831 -12.5726 6
      vertex -18.1571 -11.3726 6
    endloop
  endfacet
  facet normal 0 0 1
    outer loop
      vertex -18.9533 -11.2034 6
      vertex -19.3261 -12.3509 6
      vertex -18.2831 -12.5726 6
    endloop
  endfacet
  facet normal 0 0 1
    outer loop
      vertex -19.697 -10.8723 6
      vertex -19.3261 -12.3509 6
      vertex -18.9533 -11.2034 6
    endloop
  endfacet
  facet normal 0 0 1
    outer loop
      vertex -19.697 -10.8723 6
      vertex -20.3003 -11.9172 6
      vertex -19.3261 -12.3509 6
    endloop
  endfacet
  facet normal 0 0 1
    outer loop
      vertex -20.3555 -10.3938 6
      vertex -20.3003 -11.9172 6
      vertex -19.697 -10.8723 6
    endloop
  endfacet
  facet normal 0 0 1
    outer loop
      vertex -21.1629 -11.2904 6
      vertex -20.3555 -10.3938 6
      vertex -20.9003 -9.78879 6
    endloop
  endfacet
  facet normal 0 0 1
    outer loop
      vertex -20.3555 -10.3938 6
      vertex -21.1629 -11.2904 6
      vertex -20.3003 -11.9172 6
    endloop
  endfacet
  facet normal 0 0 1
    outer loop
      vertex -21.8764 -10.498 6
      vertex -20.9003 -9.78879 6
      vertex -21.3073 -9.0838 6
    endloop
  endfacet
  facet normal 0 0 1
    outer loop
      vertex -21.8764 -10.498 6
      vertex -21.3073 -9.0838 6
      vertex -21.5588 -8.30963 6
    endloop
  endfacet
  facet normal 0 0 1
    outer loop
      vertex -20.9003 -9.78879 6
      vertex -21.8764 -10.498 6
      vertex -21.1629 -11.2904 6
    endloop
  endfacet
  facet normal 0 0 1
    outer loop
      vertex -21.8764 -10.498 6
      vertex -21.5588 -8.30963 6
      vertex -21.6498 -7.44398 6
    endloop
  endfacet
  facet normal -0.994524 -0.104505 0
    outer loop
      vertex -22.7391 -8.56046 0
      vertex -22.85 -7.50508 6
      vertex -22.85 -7.50508 0
    endloop
  endfacet
  facet normal -0.994524 -0.104505 0
    outer loop
      vertex -22.85 -7.50508 6
      vertex -22.7391 -8.56046 0
      vertex -22.7391 -8.56046 6
    endloop
  endfacet
  facet normal -0 0 -1
    outer loop
      vertex 9.92482 -8.16329 0
      vertex -18.2831 -12.5726 0
      vertex 9.75 -6.5 0
    endloop
  endfacet
  facet normal -0 0 -1
    outer loop
      vertex 10.4416 -9.75389 0
      vertex -18.2831 -12.5726 0
      vertex 9.92482 -8.16329 0
    endloop
  endfacet
  facet normal -0 0 -1
    outer loop
      vertex 11.2779 -11.2023 0
      vertex -18.2831 -12.5726 0
      vertex 10.4416 -9.75389 0
    endloop
  endfacet
  facet normal -0 0 -1
    outer loop
      vertex 12.397 -12.4452 0
      vertex -18.2831 -12.5726 0
      vertex 11.2779 -11.2023 0
    endloop
  endfacet
  facet normal 0 0 -1
    outer loop
      vertex -18.2831 -12.5726 0
      vertex 12.397 -12.4452 0
      vertex 12.5724 -12.5726 0
    endloop
  endfacet
  facet normal 0 0 -1
    outer loop
      vertex 21.75 0.428203 0
      vertex 22.85 10.5121 0
      vertex 22.85 -0.370998 0
    endloop
  endfacet
  facet normal 0 0 -1
    outer loop
      vertex 20.2221 1.10845 0
      vertex 22.85 10.5121 0
      vertex 21.75 0.428203 0
    endloop
  endfacet
  facet normal 0 0 -1
    outer loop
      vertex 18.5862 1.45617 0
      vertex 22.85 10.5121 0
      vertex 20.2221 1.10845 0
    endloop
  endfacet
  facet normal 0 0 -1
    outer loop
      vertex 16.9138 1.45617 0
      vertex 22.85 10.5121 0
      vertex 18.5862 1.45617 0
    endloop
  endfacet
  facet normal 0 0 -1
    outer loop
      vertex 22.85 10.5121 0
      vertex 21.0094 12.5854 0
      vertex 22.6121 11.4773 0
    endloop
  endfacet
  facet normal 0 0 -1
    outer loop
      vertex 22.6121 11.4773 0
      vertex 21.0094 12.5854 0
      vertex 21.9446 12.2307 0
    endloop
  endfacet
  facet normal -0 0 -1
    outer loop
      vertex 22.85 10.5121 0
      vertex 16.9138 1.45617 0
      vertex 21.0094 12.5854 0
    endloop
  endfacet
  facet normal 0 0 -1
    outer loop
      vertex 15.2779 1.10845 0
      vertex 21.0094 12.5854 0
      vertex 16.9138 1.45617 0
    endloop
  endfacet
  facet normal 0 0 -1
    outer loop
      vertex 13.75 0.428203 0
      vertex 21.0094 12.5854 0
      vertex 15.2779 1.10845 0
    endloop
  endfacet
  facet normal 0 0 -1
    outer loop
      vertex 12.397 -0.554841 0
      vertex 21.0094 12.5854 0
      vertex 13.75 0.428203 0
    endloop
  endfacet
  facet normal 0 0 -1
    outer loop
      vertex -20.515 12.5854 0
      vertex 12.397 -0.554841 0
      vertex 11.2779 -1.79772 0
    endloop
  endfacet
  facet normal 0 0 -1
    outer loop
      vertex -18.2831 -12.5726 0
      vertex 9.92482 -4.83671 0
      vertex 9.75 -6.5 0
    endloop
  endfacet
  facet normal 0 0 -1
    outer loop
      vertex -20.515 12.5854 0
      vertex 9.92482 -4.83671 0
      vertex -18.2831 -12.5726 0
    endloop
  endfacet
  facet normal 0 0 -1
    outer loop
      vertex 9.92482 -4.83671 0
      vertex -20.515 12.5854 0
      vertex 10.4416 -3.24611 0
    endloop
  endfacet
  facet normal 0 0 -1
    outer loop
      vertex 10.4416 -3.24611 0
      vertex -20.515 12.5854 0
      vertex 11.2779 -1.79772 0
    endloop
  endfacet
  facet normal 0 0 -1
    outer loop
      vertex -22.85 -7.50508 0
      vertex -18.2831 -12.5726 0
      vertex -19.3261 -12.3509 0
    endloop
  endfacet
  facet normal 0 0 -1
    outer loop
      vertex -22.85 -7.50508 0
      vertex -19.3261 -12.3509 0
      vertex -20.3003 -11.9172 0
    endloop
  endfacet
  facet normal 0 0 -1
    outer loop
      vertex 12.397 -0.554841 0
      vertex -20.515 12.5854 0
      vertex 21.0094 12.5854 0
    endloop
  endfacet
  facet normal 0 0 -1
    outer loop
      vertex -22.85 -7.50508 0
      vertex -20.3003 -11.9172 0
      vertex -21.1629 -11.2904 0
    endloop
  endfacet
  facet normal 0 0 -1
    outer loop
      vertex -18.2831 -12.5726 0
      vertex -22.85 -7.50508 0
      vertex -20.515 12.5854 0
    endloop
  endfacet
  facet normal 0 0 -1
    outer loop
      vertex -22.85 -7.50508 0
      vertex -21.1629 -11.2904 0
      vertex -21.8764 -10.498 0
    endloop
  endfacet
  facet normal 0 -0 -1
    outer loop
      vertex -22.7918 11.0034 0
      vertex -20.515 12.5854 0
      vertex -22.85 -7.50508 0
    endloop
  endfacet
  facet normal 0 0 -1
    outer loop
      vertex -22.85 -7.50508 0
      vertex -21.8764 -10.498 0
      vertex -22.4096 -9.57457 0
    endloop
  endfacet
  facet normal 0 0 -1
    outer loop
      vertex -22.85 -7.50508 0
      vertex -22.4096 -9.57457 0
      vertex -22.7391 -8.56046 0
    endloop
  endfacet
  facet normal 0 0 -1
    outer loop
      vertex -20.515 12.5854 0
      vertex -22.7918 11.0034 0
      vertex -21.4957 12.4663 0
    endloop
  endfacet
  facet normal 0 0 -1
    outer loop
      vertex -21.4957 12.4663 0
      vertex -22.7918 11.0034 0
      vertex -22.3241 11.8945 0
    endloop
  endfacet
  facet normal 0.885474 -0.464688 0
    outer loop
      vertex -21.5927 10.7059 6
      vertex -21.399 11.075 1.2
      vertex -21.399 11.075 6
    endloop
  endfacet
  facet normal 0.885474 -0.464688 0
    outer loop
      vertex -21.399 11.075 1.2
      vertex -21.5927 10.7059 6
      vertex -21.5927 10.7059 1.2
    endloop
  endfacet
  facet normal 0.207868 0.978157 -0
    outer loop
      vertex -18.1571 -11.3726 1.2
      vertex -18.9533 -11.2034 6
      vertex -18.1571 -11.3726 6
    endloop
  endfacet
  facet normal 0.207868 0.978157 0
    outer loop
      vertex -18.9533 -11.2034 6
      vertex -18.1571 -11.3726 1.2
      vertex -18.9533 -11.2034 1.2
    endloop
  endfacet
  facet normal 0.999995 -0.00314601 0
    outer loop
      vertex -21.6498 -7.44398 6
      vertex -21.5927 10.7059 1.2
      vertex -21.5927 10.7059 6
    endloop
  endfacet
  facet normal 0.999995 -0.00314601 0
    outer loop
      vertex -21.5927 10.7059 1.2
      vertex -21.6498 -7.44398 6
      vertex -21.6498 -7.44398 1.2
    endloop
  endfacet
  facet normal -0.354536 -0.935042 0
    outer loop
      vertex 20.7895 11.3854 1.2
      vertex 21.2426 11.2136 6
      vertex 20.7895 11.3854 6
    endloop
  endfacet
  facet normal -0.354536 -0.935042 -0
    outer loop
      vertex 21.2426 11.2136 6
      vertex 20.7895 11.3854 1.2
      vertex 21.2426 11.2136 1.2
    endloop
  endfacet
  facet normal 0.743116 0.669162 0
    outer loop
      vertex -20.3555 -10.3938 6
      vertex -20.9003 -9.78879 1.2
      vertex -20.9003 -9.78879 6
    endloop
  endfacet
  facet normal 0.743116 0.669162 0
    outer loop
      vertex -20.9003 -9.78879 1.2
      vertex -20.3555 -10.3938 6
      vertex -20.3555 -10.3938 1.2
    endloop
  endfacet
  facet normal -0.970925 -0.239384 0
    outer loop
      vertex 21.65 10.3664 1.2
      vertex 21.5177 10.903 6
      vertex 21.5177 10.903 1.2
    endloop
  endfacet
  facet normal -0.970925 -0.239384 0
    outer loop
      vertex 21.5177 10.903 6
      vertex 21.65 10.3664 1.2
      vertex 21.65 10.3664 6
    endloop
  endfacet
  facet normal 0.99452 0.104547 0
    outer loop
      vertex -21.5588 -8.30963 6
      vertex -21.6498 -7.44398 1.2
      vertex -21.6498 -7.44398 6
    endloop
  endfacet
  facet normal 0.99452 0.104547 0
    outer loop
      vertex -21.6498 -7.44398 1.2
      vertex -21.5588 -8.30963 6
      vertex -21.5588 -8.30963 1.2
    endloop
  endfacet
  facet normal 0 1 -0
    outer loop
      vertex 11.4312 -11.3726 1.2
      vertex -18.1571 -11.3726 6
      vertex 11.4312 -11.3726 6
    endloop
  endfacet
  facet normal 0 1 0
    outer loop
      vertex -18.1571 -11.3726 6
      vertex 11.4312 -11.3726 1.2
      vertex -18.1571 -11.3726 1.2
    endloop
  endfacet
  facet normal 0 -1 0
    outer loop
      vertex -20.4424 11.3854 1.2
      vertex 20.7895 11.3854 6
      vertex -20.4424 11.3854 6
    endloop
  endfacet
  facet normal 0 -1 -0
    outer loop
      vertex 20.7895 11.3854 6
      vertex -20.4424 11.3854 1.2
      vertex 20.7895 11.3854 1.2
    endloop
  endfacet
  facet normal 0.951072 0.308969 0
    outer loop
      vertex -21.3073 -9.0838 6
      vertex -21.5588 -8.30963 1.2
      vertex -21.5588 -8.30963 6
    endloop
  endfacet
  facet normal 0.951072 0.308969 0
    outer loop
      vertex -21.5588 -8.30963 1.2
      vertex -21.3073 -9.0838 6
      vertex -21.3073 -9.0838 1.2
    endloop
  endfacet
  facet normal 0.40672 0.913553 -0
    outer loop
      vertex -18.9533 -11.2034 1.2
      vertex -19.697 -10.8723 6
      vertex -18.9533 -11.2034 6
    endloop
  endfacet
  facet normal 0.40672 0.913553 0
    outer loop
      vertex -19.697 -10.8723 6
      vertex -18.9533 -11.2034 1.2
      vertex -19.697 -10.8723 1.2
    endloop
  endfacet
  facet normal 0.120558 -0.992706 0
    outer loop
      vertex -21.0575 11.3107 1.2
      vertex -20.4424 11.3854 6
      vertex -21.0575 11.3107 6
    endloop
  endfacet
  facet normal 0.120558 -0.992706 0
    outer loop
      vertex -20.4424 11.3854 6
      vertex -21.0575 11.3107 1.2
      vertex -20.4424 11.3854 1.2
    endloop
  endfacet
  facet normal 0.568031 -0.823007 0
    outer loop
      vertex -21.399 11.075 1.2
      vertex -21.0575 11.3107 6
      vertex -21.399 11.075 6
    endloop
  endfacet
  facet normal 0.568031 -0.823007 0
    outer loop
      vertex -21.0575 11.3107 6
      vertex -21.399 11.075 1.2
      vertex -21.0575 11.3107 1.2
    endloop
  endfacet
  facet normal -0.748592 -0.663031 0
    outer loop
      vertex 21.5177 10.903 1.2
      vertex 21.2426 11.2136 6
      vertex 21.2426 11.2136 1.2
    endloop
  endfacet
  facet normal -0.748592 -0.663031 0
    outer loop
      vertex 21.2426 11.2136 6
      vertex 21.5177 10.903 1.2
      vertex 21.5177 10.903 6
    endloop
  endfacet
  facet normal 0.587843 0.808975 -0
    outer loop
      vertex -19.697 -10.8723 1.2
      vertex -20.3555 -10.3938 6
      vertex -19.697 -10.8723 6
    endloop
  endfacet
  facet normal 0.587843 0.808975 0
    outer loop
      vertex -20.3555 -10.3938 6
      vertex -19.697 -10.8723 1.2
      vertex -20.3555 -10.3938 1.2
    endloop
  endfacet
  facet normal 0.866039 0.499976 0
    outer loop
      vertex -20.9003 -9.78879 6
      vertex -21.3073 -9.0838 1.2
      vertex -21.3073 -9.0838 6
    endloop
  endfacet
  facet normal 0.866039 0.499976 0
    outer loop
      vertex -21.3073 -9.0838 1.2
      vertex -20.9003 -9.78879 6
      vertex -20.9003 -9.78879 1.2
    endloop
  endfacet
  facet normal -1 0 0
    outer loop
      vertex 21.65 0.472728 1.2
      vertex 21.65 10.3664 6
      vertex 21.65 10.3664 1.2
    endloop
  endfacet
  facet normal -1 -0 0
    outer loop
      vertex 21.65 10.3664 6
      vertex 21.65 0.472728 1.2
      vertex 21.65 0.472728 6
    endloop
  endfacet
  facet normal 0 0 1
    outer loop
      vertex 20.7895 11.3854 1.2
      vertex 21.65 10.3664 1.2
      vertex 21.5177 10.903 1.2
    endloop
  endfacet
  facet normal 0 0 1
    outer loop
      vertex 20.7895 11.3854 1.2
      vertex 21.5177 10.903 1.2
      vertex 21.2426 11.2136 1.2
    endloop
  endfacet
  facet normal 0 0 1
    outer loop
      vertex 16.9138 1.45617 1.2
      vertex 21.65 10.3664 1.2
      vertex 20.7895 11.3854 1.2
    endloop
  endfacet
  facet normal 0 0 1
    outer loop
      vertex 21.65 10.3664 1.2
      vertex 20.2221 1.10845 1.2
      vertex 21.65 0.472728 1.2
    endloop
  endfacet
  facet normal 0 0 1
    outer loop
      vertex 21.65 10.3664 1.2
      vertex 18.5862 1.45617 1.2
      vertex 20.2221 1.10845 1.2
    endloop
  endfacet
  facet normal 0 0 1
    outer loop
      vertex 21.65 10.3664 1.2
      vertex 16.9138 1.45617 1.2
      vertex 18.5862 1.45617 1.2
    endloop
  endfacet
  facet normal 0 0 1
    outer loop
      vertex 20.7895 11.3854 1.2
      vertex 15.2779 1.10845 1.2
      vertex 16.9138 1.45617 1.2
    endloop
  endfacet
  facet normal 0 0 1
    outer loop
      vertex 20.7895 11.3854 1.2
      vertex 13.75 0.428203 1.2
      vertex 15.2779 1.10845 1.2
    endloop
  endfacet
  facet normal 0 0 1
    outer loop
      vertex 20.7895 11.3854 1.2
      vertex 12.397 -0.554841 1.2
      vertex 13.75 0.428203 1.2
    endloop
  endfacet
  facet normal -0 0 1
    outer loop
      vertex -20.4424 11.3854 1.2
      vertex 12.397 -0.554841 1.2
      vertex 20.7895 11.3854 1.2
    endloop
  endfacet
  facet normal 0 0 1
    outer loop
      vertex 9.92482 -4.83671 1.2
      vertex -18.1571 -11.3726 1.2
      vertex 9.75 -6.5 1.2
    endloop
  endfacet
  facet normal 0 0 1
    outer loop
      vertex 10.4416 -3.24611 1.2
      vertex -18.1571 -11.3726 1.2
      vertex 9.92482 -4.83671 1.2
    endloop
  endfacet
  facet normal 0 0 1
    outer loop
      vertex -20.4424 11.3854 1.2
      vertex 10.4416 -3.24611 1.2
      vertex 11.2779 -1.79772 1.2
    endloop
  endfacet
  facet normal 0 0 1
    outer loop
      vertex 12.397 -0.554841 1.2
      vertex -20.4424 11.3854 1.2
      vertex 11.2779 -1.79772 1.2
    endloop
  endfacet
  facet normal 0 0 1
    outer loop
      vertex 10.4416 -3.24611 1.2
      vertex -20.4424 11.3854 1.2
      vertex -18.1571 -11.3726 1.2
    endloop
  endfacet
  facet normal -0 0 1
    outer loop
      vertex -21.6498 -7.44398 1.2
      vertex -18.1571 -11.3726 1.2
      vertex -20.4424 11.3854 1.2
    endloop
  endfacet
  facet normal 0 0 1
    outer loop
      vertex -18.1571 -11.3726 1.2
      vertex -21.6498 -7.44398 1.2
      vertex -18.9533 -11.2034 1.2
    endloop
  endfacet
  facet normal 0 0 1
    outer loop
      vertex -18.9533 -11.2034 1.2
      vertex -21.6498 -7.44398 1.2
      vertex -19.697 -10.8723 1.2
    endloop
  endfacet
  facet normal 0 0 1
    outer loop
      vertex -19.697 -10.8723 1.2
      vertex -21.6498 -7.44398 1.2
      vertex -20.3555 -10.3938 1.2
    endloop
  endfacet
  facet normal 0 0 1
    outer loop
      vertex -21.5927 10.7059 1.2
      vertex -20.4424 11.3854 1.2
      vertex -21.0575 11.3107 1.2
    endloop
  endfacet
  facet normal 0 0 1
    outer loop
      vertex -20.3555 -10.3938 1.2
      vertex -21.6498 -7.44398 1.2
      vertex -20.9003 -9.78879 1.2
    endloop
  endfacet
  facet normal 0 0 1
    outer loop
      vertex -21.5927 10.7059 1.2
      vertex -21.0575 11.3107 1.2
      vertex -21.399 11.075 1.2
    endloop
  endfacet
  facet normal 0 0 1
    outer loop
      vertex -20.9003 -9.78879 1.2
      vertex -21.6498 -7.44398 1.2
      vertex -21.3073 -9.0838 1.2
    endloop
  endfacet
  facet normal 0 0 1
    outer loop
      vertex -20.4424 11.3854 1.2
      vertex -21.5927 10.7059 1.2
      vertex -21.6498 -7.44398 1.2
    endloop
  endfacet
  facet normal 0 0 1
    outer loop
      vertex -21.3073 -9.0838 1.2
      vertex -21.6498 -7.44398 1.2
      vertex -21.5588 -8.30963 1.2
    endloop
  endfacet
  facet normal 0 0 1
    outer loop
      vertex 11.2779 -11.2023 1.2
      vertex -18.1571 -11.3726 1.2
      vertex 11.4312 -11.3726 1.2
    endloop
  endfacet
  facet normal 0 0 1
    outer loop
      vertex 10.4416 -9.75389 1.2
      vertex -18.1571 -11.3726 1.2
      vertex 11.2779 -11.2023 1.2
    endloop
  endfacet
  facet normal 0 0 1
    outer loop
      vertex 9.92482 -8.16329 1.2
      vertex -18.1571 -11.3726 1.2
      vertex 10.4416 -9.75389 1.2
    endloop
  endfacet
  facet normal 0 0 1
    outer loop
      vertex -18.1571 -11.3726 1.2
      vertex 9.92482 -8.16329 1.2
      vertex 9.75 -6.5 1.2
    endloop
  endfacet
  facet normal 0 -1 0
    outer loop
      vertex 16.9138 1.45617 0
      vertex 18.5862 1.45617 1.2
      vertex 16.9138 1.45617 1.2
    endloop
  endfacet
  facet normal 0 -1 -0
    outer loop
      vertex 18.5862 1.45617 1.2
      vertex 16.9138 1.45617 0
      vertex 18.5862 1.45617 0
    endloop
  endfacet
  facet normal 0.743143 -0.669133 0
    outer loop
      vertex 11.2779 -1.79772 1.2
      vertex 12.397 -0.554841 0
      vertex 12.397 -0.554841 1.2
    endloop
  endfacet
  facet normal 0.743143 -0.669133 0
    outer loop
      vertex 12.397 -0.554841 0
      vertex 11.2779 -1.79772 1.2
      vertex 11.2779 -1.79772 0
    endloop
  endfacet
  facet normal 0.406728 -0.913549 0
    outer loop
      vertex 13.75 0.428203 0
      vertex 15.2779 1.10845 1.2
      vertex 13.75 0.428203 1.2
    endloop
  endfacet
  facet normal 0.406728 -0.913549 0
    outer loop
      vertex 15.2779 1.10845 1.2
      vertex 13.75 0.428203 0
      vertex 15.2779 1.10845 0
    endloop
  endfacet
  facet normal -0.587787 -0.809016 0
    outer loop
      vertex 21.75 0.428203 0
      vertex 22.85 -0.370998 6
      vertex 21.75 0.428203 6
    endloop
  endfacet
  facet normal -0.587787 -0.809016 -0
    outer loop
      vertex 22.85 -0.370998 6
      vertex 21.75 0.428203 0
      vertex 22.85 -0.370998 0
    endloop
  endfacet
  facet normal 0.994522 -0.104529 0
    outer loop
      vertex 9.75 -6.5 1.2
      vertex 9.92482 -4.83671 0
      vertex 9.92482 -4.83671 1.2
    endloop
  endfacet
  facet normal 0.994522 -0.104529 0
    outer loop
      vertex 9.92482 -4.83671 0
      vertex 9.75 -6.5 1.2
      vertex 9.75 -6.5 0
    endloop
  endfacet
  facet normal 0.743136 0.669141 0
    outer loop
      vertex 11.4312 -11.3726 6
      vertex 12.397 -12.4452 6
      vertex 11.4312 -11.3726 1.2
    endloop
  endfacet
  facet normal 0.743229 0.669037 0
    outer loop
      vertex 11.4312 -11.3726 1.2
      vertex 11.2779 -11.2023 0
      vertex 11.2779 -11.2023 1.2
    endloop
  endfacet
  facet normal 0.743136 0.669141 -0
    outer loop
      vertex 12.397 -12.4452 0
      vertex 11.4312 -11.3726 1.2
      vertex 12.397 -12.4452 6
    endloop
  endfacet
  facet normal 0.743148 0.669127 2.29998e-05
    outer loop
      vertex 11.4312 -11.3726 1.2
      vertex 12.397 -12.4452 0
      vertex 11.2779 -11.2023 0
    endloop
  endfacet
  facet normal 0.587678 0.809095 -0
    outer loop
      vertex 12.5724 -12.5726 0
      vertex 12.397 -12.4452 6
      vertex 12.5724 -12.5726 6
    endloop
  endfacet
  facet normal 0.587678 0.809095 0
    outer loop
      vertex 12.397 -12.4452 6
      vertex 12.5724 -12.5726 0
      vertex 12.397 -12.4452 0
    endloop
  endfacet
  facet normal 0.866007 -0.500032 0
    outer loop
      vertex 10.4416 -3.24611 1.2
      vertex 11.2779 -1.79772 0
      vertex 11.2779 -1.79772 1.2
    endloop
  endfacet
  facet normal 0.866007 -0.500032 0
    outer loop
      vertex 11.2779 -1.79772 0
      vertex 10.4416 -3.24611 1.2
      vertex 10.4416 -3.24611 0
    endloop
  endfacet
  facet normal 0.587798 -0.809008 0
    outer loop
      vertex 12.397 -0.554841 0
      vertex 13.75 0.428203 1.2
      vertex 12.397 -0.554841 1.2
    endloop
  endfacet
  facet normal 0.587798 -0.809008 0
    outer loop
      vertex 13.75 0.428203 1.2
      vertex 12.397 -0.554841 0
      vertex 13.75 0.428203 0
    endloop
  endfacet
  facet normal -0.406726 -0.91355 -0
    outer loop
      vertex 20.2221 1.10845 1.2
      vertex 20.2221 1.10845 0
      vertex 21.65 0.472728 1.2
    endloop
  endfacet
  facet normal -0.406753 -0.913538 0
    outer loop
      vertex 21.65 0.472728 1.2
      vertex 21.75 0.428203 6
      vertex 21.65 0.472728 6
    endloop
  endfacet
  facet normal -0.406753 -0.913538 0
    outer loop
      vertex 21.65 0.472728 1.2
      vertex 21.75 0.428203 0
      vertex 21.75 0.428203 6
    endloop
  endfacet
  facet normal -0.406728 -0.913549 2.51497e-06
    outer loop
      vertex 21.75 0.428203 0
      vertex 21.65 0.472728 1.2
      vertex 20.2221 1.10845 0
    endloop
  endfacet
  facet normal -0.207911 -0.978148 0
    outer loop
      vertex 18.5862 1.45617 0
      vertex 20.2221 1.10845 1.2
      vertex 18.5862 1.45617 1.2
    endloop
  endfacet
  facet normal -0.207911 -0.978148 -0
    outer loop
      vertex 20.2221 1.10845 1.2
      vertex 18.5862 1.45617 0
      vertex 20.2221 1.10845 0
    endloop
  endfacet
  facet normal 0.951063 -0.308997 0
    outer loop
      vertex 9.92482 -4.83671 1.2
      vertex 10.4416 -3.24611 0
      vertex 10.4416 -3.24611 1.2
    endloop
  endfacet
  facet normal 0.951063 -0.308997 0
    outer loop
      vertex 10.4416 -3.24611 0
      vertex 9.92482 -4.83671 1.2
      vertex 9.92482 -4.83671 0
    endloop
  endfacet
  facet normal 0.207911 -0.978148 0
    outer loop
      vertex 15.2779 1.10845 0
      vertex 16.9138 1.45617 1.2
      vertex 15.2779 1.10845 1.2
    endloop
  endfacet
  facet normal 0.207911 -0.978148 0
    outer loop
      vertex 16.9138 1.45617 1.2
      vertex 15.2779 1.10845 0
      vertex 16.9138 1.45617 0
    endloop
  endfacet
  facet normal 0.951063 0.308997 0
    outer loop
      vertex 10.4416 -9.75389 1.2
      vertex 9.92482 -8.16329 0
      vertex 9.92482 -8.16329 1.2
    endloop
  endfacet
  facet normal 0.951063 0.308997 0
    outer loop
      vertex 9.92482 -8.16329 0
      vertex 10.4416 -9.75389 1.2
      vertex 10.4416 -9.75389 0
    endloop
  endfacet
  facet normal 0.86601 0.500027 0
    outer loop
      vertex 11.2779 -11.2023 1.2
      vertex 10.4416 -9.75389 0
      vertex 10.4416 -9.75389 1.2
    endloop
  endfacet
  facet normal 0.86601 0.500027 0
    outer loop
      vertex 10.4416 -9.75389 0
      vertex 11.2779 -11.2023 1.2
      vertex 11.2779 -11.2023 0
    endloop
  endfacet
  facet normal 0.994522 0.104529 0
    outer loop
      vertex 9.92482 -8.16329 1.2
      vertex 9.75 -6.5 0
      vertex 9.75 -6.5 1.2
    endloop
  endfacet
  facet normal 0.994522 0.104529 0
    outer loop
      vertex 9.75 -6.5 0
      vertex 9.92482 -8.16329 1.2
      vertex 9.92482 -8.16329 0
    endloop
  endfacet
endsolid OpenSCAD_Model
