solid OpenSCAD_Model
  facet normal 0 0 -1
    outer loop
      vertex -1.52588e-05 -5.00002 0
      vertex 2 -6.00002 0
      vertex -1.52588e-05 -6.00002 0
    endloop
  endfacet
  facet normal 0 0 -1
    outer loop
      vertex 40 -8.00002 0
      vertex 37 -5.00002 0
      vertex 40 -6.00002 0
    endloop
  endfacet
  facet normal 0 0 -1
    outer loop
      vertex 35 -2.00002 0
      vertex 37 -5.00002 0
      vertex 35 -8.00002 0
    endloop
  endfacet
  facet normal 0 0 -1
    outer loop
      vertex 35 -8.00002 0
      vertex 37 -5.00002 0
      vertex 40 -8.00002 0
    endloop
  endfacet
  facet normal 0 0 -1
    outer loop
      vertex 80 -8.00002 0
      vertex 78 -5.00002 0
      vertex 80 -1.52588e-05 0
    endloop
  endfacet
  facet normal 0 0 -1
    outer loop
      vertex 75 -8.00002 0
      vertex 78 -5.00002 0
      vertex 80 -8.00002 0
    endloop
  endfacet
  facet normal 0 0 -1
    outer loop
      vertex 78 -5.00002 0
      vertex 75 -8.00002 0
      vertex 75 -6.00002 0
    endloop
  endfacet
  facet normal 0 0 -1
    outer loop
      vertex 78 -2.00002 0
      vertex 80 -1.52588e-05 0
      vertex 78 -5.00002 0
    endloop
  endfacet
  facet normal 0 0 -1
    outer loop
      vertex 37 -2.00002 0
      vertex 80 -1.52588e-05 0
      vertex 78 -2.00002 0
    endloop
  endfacet
  facet normal 0 0 -1
    outer loop
      vertex 37 -5.00002 0
      vertex 35 -2.00002 0
      vertex 37 -2.00002 0
    endloop
  endfacet
  facet normal 0 0 -1
    outer loop
      vertex -1.52588e-05 -1.52588e-05 0
      vertex 37 -2.00002 0
      vertex 35 -2.00002 0
    endloop
  endfacet
  facet normal 0 0 -1
    outer loop
      vertex -1.52588e-05 -1.52588e-05 0
      vertex 35 -2.00002 0
      vertex 2 -2.00002 0
    endloop
  endfacet
  facet normal 0 0 -1
    outer loop
      vertex 2 -6.00002 0
      vertex -1.52588e-05 -5.00002 0
      vertex 2 -2.00002 0
    endloop
  endfacet
  facet normal 0 0 -1
    outer loop
      vertex 37 -2.00002 0
      vertex -1.52588e-05 -1.52588e-05 0
      vertex 80 -1.52588e-05 0
    endloop
  endfacet
  facet normal 0 0 -1
    outer loop
      vertex -1.52588e-05 -1.52588e-05 0
      vertex 2 -2.00002 0
      vertex -1.52588e-05 -5.00002 0
    endloop
  endfacet
  facet normal 0 0 -1
    outer loop
      vertex -4.00002 -90 0
      vertex -2 -85 0
      vertex -2.00002 -90 0
    endloop
  endfacet
  facet normal 0 0 -1
    outer loop
      vertex -2 -85 0
      vertex -4 -84 0
      vertex -2 -80 0
    endloop
  endfacet
  facet normal -0 0 -1
    outer loop
      vertex -2 -85 0
      vertex -4.00002 -90 0
      vertex -4 -84 0
    endloop
  endfacet
  facet normal 0 0 -1
    outer loop
      vertex -2 -80 0
      vertex 0 -81 0
      vertex -2 -85 0
    endloop
  endfacet
  facet normal 0 0 -1
    outer loop
      vertex -2.00002 -9.00002 0
      vertex 0 -81 0
      vertex -2 -80 0
    endloop
  endfacet
  facet normal 0 0 -1
    outer loop
      vertex 0 -81 0
      vertex -2.00002 -9.00002 0
      vertex -1.52588e-05 -6.00002 0
    endloop
  endfacet
  facet normal 0 0 -1
    outer loop
      vertex -2.00002 -5.00002 0
      vertex -1.52588e-05 -6.00002 0
      vertex -2.00002 -9.00002 0
    endloop
  endfacet
  facet normal 0 0 -1
    outer loop
      vertex -1.52588e-05 -6.00002 0
      vertex -2.00002 -5.00002 0
      vertex -1.52588e-05 -5.00002 0
    endloop
  endfacet
  facet normal 0 0 -1
    outer loop
      vertex -4.00002 -5.00002 0
      vertex -2.00002 -5.00002 0
      vertex -2.00002 -9.00002 0
    endloop
  endfacet
  facet normal 0 0 -1
    outer loop
      vertex -2.00002 -5.00002 0
      vertex -4.00002 -5.00002 0
      vertex -2.00002 -1.52588e-05 0
    endloop
  endfacet
  facet normal -0 0 -1
    outer loop
      vertex -2.00002 -1.52588e-05 0
      vertex -4.00002 -5.00002 0
      vertex -4.00002 -1.52588e-05 0
    endloop
  endfacet
  facet normal 0 0 1
    outer loop
      vertex -4.00002 -5.00002 10
      vertex -2.00002 -5.00002 10
      vertex -2.00002 -1.52588e-05 10
    endloop
  endfacet
  facet normal 0 0 1
    outer loop
      vertex -4.00002 -5.00002 10
      vertex -2.00002 -1.52588e-05 10
      vertex -4.00002 -1.52588e-05 10
    endloop
  endfacet
  facet normal 0 0 1
    outer loop
      vertex -2.00002 -5.00002 10
      vertex -4.00002 -5.00002 10
      vertex -2.00002 -9.00002 10
    endloop
  endfacet
  facet normal 0 0 1
    outer loop
      vertex 78 -5.00002 10
      vertex 80 -1.52588e-05 10
      vertex 78 -2.00002 10
    endloop
  endfacet
  facet normal 0 0 1
    outer loop
      vertex 80 -1.52588e-05 10
      vertex 37 -2.00002 10
      vertex 78 -2.00002 10
    endloop
  endfacet
  facet normal 0 0 1
    outer loop
      vertex 37 -2.00002 10
      vertex 35 -2.00002 10
      vertex 37 -5.00002 10
    endloop
  endfacet
  facet normal -0 0 1
    outer loop
      vertex -1.52588e-05 -1.52588e-05 10
      vertex 37 -2.00002 10
      vertex 80 -1.52588e-05 10
    endloop
  endfacet
  facet normal 0 0 1
    outer loop
      vertex 37 -2.00002 10
      vertex -1.52588e-05 -1.52588e-05 10
      vertex 35 -2.00002 10
    endloop
  endfacet
  facet normal 0 0 1
    outer loop
      vertex 35 -2.00002 10
      vertex -1.52588e-05 -1.52588e-05 10
      vertex 2 -2.00002 10
    endloop
  endfacet
  facet normal 0 0 1
    outer loop
      vertex -1.52588e-05 -5.00002 10
      vertex 2 -2.00002 10
      vertex -1.52588e-05 -1.52588e-05 10
    endloop
  endfacet
  facet normal 0 0 1
    outer loop
      vertex 2 -2.00002 10
      vertex -1.52588e-05 -5.00002 10
      vertex 2 -6.00002 10
    endloop
  endfacet
  facet normal 0 0 1
    outer loop
      vertex -1.52588e-05 -5.00002 10
      vertex -1.52588e-05 -6.00002 10
      vertex 2 -6.00002 10
    endloop
  endfacet
  facet normal -0 0 1
    outer loop
      vertex -2.00002 -5.00002 10
      vertex -1.52588e-05 -6.00002 10
      vertex -1.52588e-05 -5.00002 10
    endloop
  endfacet
  facet normal 0 0 1
    outer loop
      vertex -1.52588e-05 -6.00002 10
      vertex -2.00002 -5.00002 10
      vertex -2.00002 -9.00002 10
    endloop
  endfacet
  facet normal 0 0 1
    outer loop
      vertex -1.52588e-05 -6.00002 10
      vertex -2.00002 -9.00002 10
      vertex -2 -80 10
    endloop
  endfacet
  facet normal 0 0 1
    outer loop
      vertex 80 -1.52588e-05 10
      vertex 78 -5.00002 10
      vertex 80 -8.00002 10
    endloop
  endfacet
  facet normal 0 0 1
    outer loop
      vertex 75 -8.00002 10
      vertex 78 -5.00002 10
      vertex 75 -6.00002 10
    endloop
  endfacet
  facet normal 0 0 1
    outer loop
      vertex 78 -5.00002 10
      vertex 75 -8.00002 10
      vertex 80 -8.00002 10
    endloop
  endfacet
  facet normal 0 0 1
    outer loop
      vertex 37 -5.00002 10
      vertex 40 -8.00002 10
      vertex 40 -6.00002 10
    endloop
  endfacet
  facet normal 0 0 1
    outer loop
      vertex 37 -5.00002 10
      vertex 35 -8.00002 10
      vertex 40 -8.00002 10
    endloop
  endfacet
  facet normal 0 0 1
    outer loop
      vertex 35 -8.00002 10
      vertex 37 -5.00002 10
      vertex 35 -2.00002 10
    endloop
  endfacet
  facet normal -0 0 1
    outer loop
      vertex -2 -80 10
      vertex 0 -81 10
      vertex -1.52588e-05 -6.00002 10
    endloop
  endfacet
  facet normal 0 0 1
    outer loop
      vertex -2 -80 10
      vertex -2 -85 10
      vertex 0 -81 10
    endloop
  endfacet
  facet normal -0 0 1
    outer loop
      vertex -4 -84 10
      vertex -2 -85 10
      vertex -2 -80 10
    endloop
  endfacet
  facet normal 0 0 1
    outer loop
      vertex -4.00002 -90 10
      vertex -2 -85 10
      vertex -4 -84 10
    endloop
  endfacet
  facet normal 0 0 1
    outer loop
      vertex -2 -85 10
      vertex -4.00002 -90 10
      vertex -2.00002 -90 10
    endloop
  endfacet
  facet normal 0.894427 -0.447214 0
    outer loop
      vertex -2 -85 10
      vertex 0 -81 0
      vertex 0 -81 10
    endloop
  endfacet
  facet normal 0.894427 -0.447214 0
    outer loop
      vertex 0 -81 0
      vertex -2 -85 10
      vertex -2 -85 0
    endloop
  endfacet
  facet normal 1 2.0345e-07 0
    outer loop
      vertex -1.52588e-05 -6.00002 10
      vertex -1.24105e-05 -20 6
      vertex -1.52588e-05 -6.00002 6
    endloop
  endfacet
  facet normal 1 2.03451e-07 0
    outer loop
      vertex -1.24105e-05 -20 6
      vertex 0 -81 10
      vertex -1.24105e-05 -20 4
    endloop
  endfacet
  facet normal 1 2.03451e-07 -1.50597e-12
    outer loop
      vertex 0 -81 10
      vertex -1.24105e-05 -20 6
      vertex -1.52588e-05 -6.00002 10
    endloop
  endfacet
  facet normal 1 2.0345e-07 0
    outer loop
      vertex -1.24105e-05 -20 4
      vertex -1.52588e-05 -6.00002 0
      vertex -1.52588e-05 -6.00002 4
    endloop
  endfacet
  facet normal 1 2.03451e-07 -0
    outer loop
      vertex 0 -81 0
      vertex -1.24105e-05 -20 4
      vertex 0 -81 10
    endloop
  endfacet
  facet normal 1 2.03451e-07 1.50597e-12
    outer loop
      vertex -1.24105e-05 -20 4
      vertex 0 -81 0
      vertex -1.52588e-05 -6.00002 0
    endloop
  endfacet
  facet normal 0 -1 0
    outer loop
      vertex -1.52588e-05 -6.00002 0
      vertex 2 -6.00002 4
      vertex -1.52588e-05 -6.00002 4
    endloop
  endfacet
  facet normal 0 -1 -0
    outer loop
      vertex 2 -6.00002 4
      vertex -1.52588e-05 -6.00002 0
      vertex 2 -6.00002 0
    endloop
  endfacet
  facet normal 0 -1 0
    outer loop
      vertex -1.52588e-05 -6.00002 6
      vertex 2 -6.00002 10
      vertex -1.52588e-05 -6.00002 10
    endloop
  endfacet
  facet normal 0 -1 -0
    outer loop
      vertex 2 -6.00002 10
      vertex -1.52588e-05 -6.00002 6
      vertex 2 -6.00002 6
    endloop
  endfacet
  facet normal 1 -0 0
    outer loop
      vertex 2 -6.00002 4
      vertex 2 -2.00002 0
      vertex 2 -2.00002 4
    endloop
  endfacet
  facet normal 1 0 0
    outer loop
      vertex 2 -2.00002 0
      vertex 2 -6.00002 4
      vertex 2 -6.00002 0
    endloop
  endfacet
  facet normal 1 -0 0
    outer loop
      vertex 2 -6.00002 10
      vertex 2 -2.00002 6
      vertex 2 -2.00002 10
    endloop
  endfacet
  facet normal 1 0 0
    outer loop
      vertex 2 -2.00002 6
      vertex 2 -6.00002 10
      vertex 2 -6.00002 6
    endloop
  endfacet
  facet normal 0 -1 0
    outer loop
      vertex 2 -2.00002 0
      vertex 35 -2.00002 4
      vertex 2 -2.00002 4
    endloop
  endfacet
  facet normal 0 -1 -0
    outer loop
      vertex 35 -2.00002 4
      vertex 2 -2.00002 0
      vertex 35 -2.00002 0
    endloop
  endfacet
  facet normal 0 -1 0
    outer loop
      vertex 2 -2.00002 6
      vertex 35 -2.00002 10
      vertex 2 -2.00002 10
    endloop
  endfacet
  facet normal 0 -1 -0
    outer loop
      vertex 35 -2.00002 10
      vertex 2 -2.00002 6
      vertex 35 -2.00002 6
    endloop
  endfacet
  facet normal -1 0 0
    outer loop
      vertex 35 -8.00002 0
      vertex 35 -2.00002 4
      vertex 35 -2.00002 0
    endloop
  endfacet
  facet normal -1 -0 0
    outer loop
      vertex 35 -2.00002 4
      vertex 35 -8.00002 0
      vertex 35 -8.00002 4
    endloop
  endfacet
  facet normal -1 0 0
    outer loop
      vertex 35 -8.00002 6
      vertex 35 -2.00002 10
      vertex 35 -2.00002 6
    endloop
  endfacet
  facet normal -1 -0 0
    outer loop
      vertex 35 -2.00002 10
      vertex 35 -8.00002 6
      vertex 35 -8.00002 10
    endloop
  endfacet
  facet normal 0 -1 0
    outer loop
      vertex 35 -8.00002 6
      vertex 40 -8.00002 10
      vertex 35 -8.00002 10
    endloop
  endfacet
  facet normal 0 -1 0
    outer loop
      vertex 35 -8.00002 4
      vertex 40 -8.00002 10
      vertex 35 -8.00002 6
    endloop
  endfacet
  facet normal 0 -1 0
    outer loop
      vertex 40 -8.00002 0
      vertex 35 -8.00002 4
      vertex 35 -8.00002 0
    endloop
  endfacet
  facet normal 0 -1 0
    outer loop
      vertex 35 -8.00002 4
      vertex 40 -8.00002 0
      vertex 40 -8.00002 10
    endloop
  endfacet
  facet normal 1 -0 0
    outer loop
      vertex 40 -8.00002 10
      vertex 40 -6.00002 0
      vertex 40 -6.00002 10
    endloop
  endfacet
  facet normal 1 0 0
    outer loop
      vertex 40 -6.00002 0
      vertex 40 -8.00002 10
      vertex 40 -8.00002 0
    endloop
  endfacet
  facet normal 0.316228 0.948683 -0
    outer loop
      vertex 40 -6.00002 0
      vertex 37 -5.00002 10
      vertex 40 -6.00002 10
    endloop
  endfacet
  facet normal 0.316228 0.948683 0
    outer loop
      vertex 37 -5.00002 10
      vertex 40 -6.00002 0
      vertex 37 -5.00002 0
    endloop
  endfacet
  facet normal 1 -0 0
    outer loop
      vertex 37 -5.00002 10
      vertex 37 -2.00002 0
      vertex 37 -2.00002 10
    endloop
  endfacet
  facet normal 1 0 0
    outer loop
      vertex 37 -2.00002 0
      vertex 37 -5.00002 10
      vertex 37 -5.00002 0
    endloop
  endfacet
  facet normal 0 -1 0
    outer loop
      vertex 37 -2.00002 0
      vertex 78 -2.00002 10
      vertex 37 -2.00002 10
    endloop
  endfacet
  facet normal 0 -1 -0
    outer loop
      vertex 78 -2.00002 10
      vertex 37 -2.00002 0
      vertex 78 -2.00002 0
    endloop
  endfacet
  facet normal -1 0 0
    outer loop
      vertex 78 -5.00002 0
      vertex 78 -2.00002 10
      vertex 78 -2.00002 0
    endloop
  endfacet
  facet normal -1 -0 0
    outer loop
      vertex 78 -2.00002 10
      vertex 78 -5.00002 0
      vertex 78 -5.00002 10
    endloop
  endfacet
  facet normal -0.316228 0.948683 0
    outer loop
      vertex 78 -5.00002 0
      vertex 75 -6.00002 10
      vertex 78 -5.00002 10
    endloop
  endfacet
  facet normal -0.316228 0.948683 0
    outer loop
      vertex 75 -6.00002 10
      vertex 78 -5.00002 0
      vertex 75 -6.00002 0
    endloop
  endfacet
  facet normal -1 0 0
    outer loop
      vertex 75 -8.00002 0
      vertex 75 -6.00002 10
      vertex 75 -6.00002 0
    endloop
  endfacet
  facet normal -1 -0 0
    outer loop
      vertex 75 -6.00002 10
      vertex 75 -8.00002 0
      vertex 75 -8.00002 10
    endloop
  endfacet
  facet normal 0 -1 0
    outer loop
      vertex 75 -8.00002 0
      vertex 80 -8.00002 10
      vertex 75 -8.00002 10
    endloop
  endfacet
  facet normal 0 -1 -0
    outer loop
      vertex 80 -8.00002 10
      vertex 75 -8.00002 0
      vertex 80 -8.00002 0
    endloop
  endfacet
  facet normal 1 -0 0
    outer loop
      vertex 80 -8.00002 10
      vertex 80 -1.52588e-05 0
      vertex 80 -1.52588e-05 10
    endloop
  endfacet
  facet normal 1 0 0
    outer loop
      vertex 80 -1.52588e-05 0
      vertex 80 -8.00002 10
      vertex 80 -8.00002 0
    endloop
  endfacet
  facet normal 0 1 -0
    outer loop
      vertex 80 -1.52588e-05 0
      vertex -1.52588e-05 -1.52588e-05 10
      vertex 80 -1.52588e-05 10
    endloop
  endfacet
  facet normal 0 1 0
    outer loop
      vertex -1.52588e-05 -1.52588e-05 10
      vertex 80 -1.52588e-05 0
      vertex -1.52588e-05 -1.52588e-05 0
    endloop
  endfacet
  facet normal -1 0 0
    outer loop
      vertex -1.52588e-05 -5.00002 0
      vertex -1.52588e-05 -1.52588e-05 10
      vertex -1.52588e-05 -1.52588e-05 0
    endloop
  endfacet
  facet normal -1 -0 0
    outer loop
      vertex -1.52588e-05 -1.52588e-05 10
      vertex -1.52588e-05 -5.00002 0
      vertex -1.52588e-05 -5.00002 10
    endloop
  endfacet
  facet normal 0 1 -0
    outer loop
      vertex -1.52588e-05 -5.00002 0
      vertex -2.00002 -5.00002 10
      vertex -1.52588e-05 -5.00002 10
    endloop
  endfacet
  facet normal 0 1 0
    outer loop
      vertex -2.00002 -5.00002 10
      vertex -1.52588e-05 -5.00002 0
      vertex -2.00002 -5.00002 0
    endloop
  endfacet
  facet normal 1 -0 0
    outer loop
      vertex -2.00002 -5.00002 10
      vertex -2.00002 -1.52588e-05 0
      vertex -2.00002 -1.52588e-05 10
    endloop
  endfacet
  facet normal 1 0 0
    outer loop
      vertex -2.00002 -1.52588e-05 0
      vertex -2.00002 -5.00002 10
      vertex -2.00002 -5.00002 0
    endloop
  endfacet
  facet normal 0 1 -0
    outer loop
      vertex -2.00002 -1.52588e-05 0
      vertex -4.00002 -1.52588e-05 10
      vertex -2.00002 -1.52588e-05 10
    endloop
  endfacet
  facet normal 0 1 0
    outer loop
      vertex -4.00002 -1.52588e-05 10
      vertex -2.00002 -1.52588e-05 0
      vertex -4.00002 -1.52588e-05 0
    endloop
  endfacet
  facet normal -1 0 0
    outer loop
      vertex -4.00002 -5.00002 0
      vertex -4.00002 -1.52588e-05 10
      vertex -4.00002 -1.52588e-05 0
    endloop
  endfacet
  facet normal -1 -0 0
    outer loop
      vertex -4.00002 -1.52588e-05 10
      vertex -4.00002 -5.00002 0
      vertex -4.00002 -5.00002 10
    endloop
  endfacet
  facet normal -0.894427 -0.447214 0
    outer loop
      vertex -2.00002 -9.00002 0
      vertex -4.00002 -5.00002 10
      vertex -4.00002 -5.00002 0
    endloop
  endfacet
  facet normal -0.894427 -0.447214 0
    outer loop
      vertex -4.00002 -5.00002 10
      vertex -2.00002 -9.00002 0
      vertex -2.00002 -9.00002 10
    endloop
  endfacet
  facet normal -1 -2.8169e-07 0
    outer loop
      vertex -2 -80 0
      vertex -2.00002 -9.00002 10
      vertex -2.00002 -9.00002 0
    endloop
  endfacet
  facet normal -1 -2.8169e-07 0
    outer loop
      vertex -2.00002 -9.00002 10
      vertex -2 -80 0
      vertex -2 -80 10
    endloop
  endfacet
  facet normal -0.894427 0.447214 0
    outer loop
      vertex -4 -84 0
      vertex -2 -80 10
      vertex -2 -80 0
    endloop
  endfacet
  facet normal -0.894427 0.447214 0
    outer loop
      vertex -2 -80 10
      vertex -4 -84 0
      vertex -4 -84 10
    endloop
  endfacet
  facet normal -1 3.33333e-06 0
    outer loop
      vertex -4.00002 -90 0
      vertex -4 -84 10
      vertex -4 -84 0
    endloop
  endfacet
  facet normal -1 3.33333e-06 0
    outer loop
      vertex -4 -84 10
      vertex -4.00002 -90 0
      vertex -4.00002 -90 10
    endloop
  endfacet
  facet normal 0 -1 0
    outer loop
      vertex -4.00002 -90 0
      vertex -2.00002 -90 10
      vertex -4.00002 -90 10
    endloop
  endfacet
  facet normal 0 -1 -0
    outer loop
      vertex -2.00002 -90 10
      vertex -4.00002 -90 0
      vertex -2.00002 -90 0
    endloop
  endfacet
  facet normal 1 -4e-06 0
    outer loop
      vertex -2.00002 -90 10
      vertex -2 -85 0
      vertex -2 -85 10
    endloop
  endfacet
  facet normal 1 -4e-06 0
    outer loop
      vertex -2 -85 0
      vertex -2.00002 -90 10
      vertex -2.00002 -90 0
    endloop
  endfacet
  facet normal 0 0 -1
    outer loop
      vertex 35 -8.00002 4
      vertex 2 -6.00002 4
      vertex 35 -2.00002 4
    endloop
  endfacet
  facet normal 0 0 -1
    outer loop
      vertex -1.24105e-05 -20 4
      vertex 2 -6.00002 4
      vertex 35 -8.00002 4
    endloop
  endfacet
  facet normal -0 0 -1
    outer loop
      vertex 2 -6.00002 4
      vertex -1.24105e-05 -20 4
      vertex -1.52588e-05 -6.00002 4
    endloop
  endfacet
  facet normal -0 0 -1
    outer loop
      vertex 35 -2.00002 4
      vertex 2 -6.00002 4
      vertex 2 -2.00002 4
    endloop
  endfacet
  facet normal 0 0 1
    outer loop
      vertex 2 -6.00002 6
      vertex 35 -2.00002 6
      vertex 2 -2.00002 6
    endloop
  endfacet
  facet normal 0 0 1
    outer loop
      vertex 35 -2.00002 6
      vertex 2 -6.00002 6
      vertex 35 -8.00002 6
    endloop
  endfacet
  facet normal 0 0 1
    outer loop
      vertex 2 -6.00002 6
      vertex -1.24105e-05 -20 6
      vertex 35 -8.00002 6
    endloop
  endfacet
  facet normal 0 -0 1
    outer loop
      vertex -1.24105e-05 -20 6
      vertex 2 -6.00002 6
      vertex -1.52588e-05 -6.00002 6
    endloop
  endfacet
  facet normal 0.324324 -0.945946 0
    outer loop
      vertex -1.24105e-05 -20 4
      vertex 35 -8.00002 6
      vertex -1.24105e-05 -20 6
    endloop
  endfacet
  facet normal 0.324324 -0.945946 0
    outer loop
      vertex 35 -8.00002 6
      vertex -1.24105e-05 -20 4
      vertex 35 -8.00002 4
    endloop
  endfacet
endsolid OpenSCAD_Model
