solid OpenSCAD_Model
  facet normal 0.951055 0.309021 0
    outer loop
      vertex 7.33611 1.55934 17.25
      vertex 6.85159 3.05052 0
      vertex 6.85159 3.05052 17.25
    endloop
  endfacet
  facet normal 0.951055 0.309021 0
    outer loop
      vertex 6.85159 3.05052 0
      vertex 7.33611 1.55934 17.25
      vertex 7.33611 1.55934 0
    endloop
  endfacet
  facet normal 0.994522 0.104526 0
    outer loop
      vertex 7.5 0 17.25
      vertex 7.33611 1.55934 0
      vertex 7.33611 1.55934 17.25
    endloop
  endfacet
  facet normal 0.994522 0.104526 0
    outer loop
      vertex 7.33611 1.55934 0
      vertex 7.5 0 17.25
      vertex 7.5 0 0
    endloop
  endfacet
  facet normal 0.866027 0.499997 0
    outer loop
      vertex 6.85159 3.05052 17.25
      vertex 6.06763 4.40839 0
      vertex 6.06763 4.40839 17.25
    endloop
  endfacet
  facet normal 0.866027 0.499997 0
    outer loop
      vertex 6.06763 4.40839 0
      vertex 6.85159 3.05052 17.25
      vertex 6.85159 3.05052 0
    endloop
  endfacet
  facet normal 0.207911 0.978148 -0
    outer loop
      vertex 2.31763 7.13292 0
      vertex 0.783963 7.45891 17.25
      vertex 2.31763 7.13292 17.25
    endloop
  endfacet
  facet normal 0.207911 0.978148 0
    outer loop
      vertex 0.783963 7.45891 17.25
      vertex 2.31763 7.13292 0
      vertex 0.783963 7.45891 0
    endloop
  endfacet
  facet normal -0.866027 -0.499997 0
    outer loop
      vertex -6.06763 -4.40839 0
      vertex -6.85159 -3.05052 17.25
      vertex -6.85159 -3.05052 0
    endloop
  endfacet
  facet normal -0.866027 -0.499997 0
    outer loop
      vertex -6.85159 -3.05052 17.25
      vertex -6.06763 -4.40839 0
      vertex -6.06763 -4.40839 17.25
    endloop
  endfacet
  facet normal 0.994522 -0.104526 0
    outer loop
      vertex 7.33611 -1.55934 17.25
      vertex 7.5 0 0
      vertex 7.5 0 17.25
    endloop
  endfacet
  facet normal 0.994522 -0.104526 0
    outer loop
      vertex 7.5 0 0
      vertex 7.33611 -1.55934 17.25
      vertex 7.33611 -1.55934 0
    endloop
  endfacet
  facet normal 0.743145 0.66913 0
    outer loop
      vertex 6.06763 4.40839 17.25
      vertex 5.01848 5.57359 0
      vertex 5.01848 5.57359 17.25
    endloop
  endfacet
  facet normal 0.743145 0.66913 0
    outer loop
      vertex 5.01848 5.57359 0
      vertex 6.06763 4.40839 17.25
      vertex 6.06763 4.40839 0
    endloop
  endfacet
  facet normal -0.587783 0.809018 0
    outer loop
      vertex -3.75 6.49519 0
      vertex -5.01848 5.57359 17.25
      vertex -3.75 6.49519 17.25
    endloop
  endfacet
  facet normal -0.587783 0.809018 0
    outer loop
      vertex -5.01848 5.57359 17.25
      vertex -3.75 6.49519 0
      vertex -5.01848 5.57359 0
    endloop
  endfacet
  facet normal 0.587783 -0.809018 0
    outer loop
      vertex 3.75 -6.49519 0
      vertex 5.01848 -5.57359 17.25
      vertex 3.75 -6.49519 17.25
    endloop
  endfacet
  facet normal 0.587783 -0.809018 0
    outer loop
      vertex 5.01848 -5.57359 17.25
      vertex 3.75 -6.49519 0
      vertex 5.01848 -5.57359 0
    endloop
  endfacet
  facet normal 0 -1 0
    outer loop
      vertex -0.783963 -7.45891 0
      vertex 0.783963 -7.45891 17.25
      vertex -0.783963 -7.45891 17.25
    endloop
  endfacet
  facet normal 0 -1 -0
    outer loop
      vertex 0.783963 -7.45891 17.25
      vertex -0.783963 -7.45891 0
      vertex 0.783963 -7.45891 0
    endloop
  endfacet
  facet normal -0.951055 0.309021 0
    outer loop
      vertex -7.33611 1.55934 0
      vertex -6.85159 3.05052 17.25
      vertex -6.85159 3.05052 0
    endloop
  endfacet
  facet normal -0.951055 0.309021 0
    outer loop
      vertex -6.85159 3.05052 17.25
      vertex -7.33611 1.55934 0
      vertex -7.33611 1.55934 17.25
    endloop
  endfacet
  facet normal 0 1 -0
    outer loop
      vertex 0.783963 7.45891 0
      vertex -0.783963 7.45891 17.25
      vertex 0.783963 7.45891 17.25
    endloop
  endfacet
  facet normal 0 1 0
    outer loop
      vertex -0.783963 7.45891 17.25
      vertex 0.783963 7.45891 0
      vertex -0.783963 7.45891 0
    endloop
  endfacet
  facet normal 0.406735 -0.913546 0
    outer loop
      vertex 2.31763 -7.13292 0
      vertex 3.75 -6.49519 17.25
      vertex 2.31763 -7.13292 17.25
    endloop
  endfacet
  facet normal 0.406735 -0.913546 0
    outer loop
      vertex 3.75 -6.49519 17.25
      vertex 2.31763 -7.13292 0
      vertex 3.75 -6.49519 0
    endloop
  endfacet
  facet normal -0.994522 -0.104526 0
    outer loop
      vertex -7.33611 -1.55934 0
      vertex -7.5 0 17.25
      vertex -7.5 0 0
    endloop
  endfacet
  facet normal -0.994522 -0.104526 0
    outer loop
      vertex -7.5 0 17.25
      vertex -7.33611 -1.55934 0
      vertex -7.33611 -1.55934 17.25
    endloop
  endfacet
  facet normal 0 0 1
    outer loop
      vertex 6 0 17.25
      vertex 7.5 0 17.25
      vertex 7.33611 1.55934 17.25
    endloop
  endfacet
  facet normal 0 0 1
    outer loop
      vertex 5.86889 1.24747 17.25
      vertex 7.33611 1.55934 17.25
      vertex 6.85159 3.05052 17.25
    endloop
  endfacet
  facet normal 0 0 1
    outer loop
      vertex 7.5 0 17.25
      vertex 6 0 17.25
      vertex 7.33611 -1.55934 17.25
    endloop
  endfacet
  facet normal 0 0 1
    outer loop
      vertex 5.48127 2.44042 17.25
      vertex 6.85159 3.05052 17.25
      vertex 6.06763 4.40839 17.25
    endloop
  endfacet
  facet normal -0 0 1
    outer loop
      vertex 5.86889 -1.24747 17.25
      vertex 7.33611 -1.55934 17.25
      vertex 6 0 17.25
    endloop
  endfacet
  facet normal 0 0 1
    outer loop
      vertex 7.33611 -1.55934 17.25
      vertex 5.86889 -1.24747 17.25
      vertex 6.85159 -3.05052 17.25
    endloop
  endfacet
  facet normal 0 0 1
    outer loop
      vertex 7.33611 1.55934 17.25
      vertex 5.86889 1.24747 17.25
      vertex 6 0 17.25
    endloop
  endfacet
  facet normal 0 0 1
    outer loop
      vertex 6.85159 3.05052 17.25
      vertex 5.48127 2.44042 17.25
      vertex 5.86889 1.24747 17.25
    endloop
  endfacet
  facet normal 0 0 1
    outer loop
      vertex 4.8541 3.52671 17.25
      vertex 6.06763 4.40839 17.25
      vertex 5.01848 5.57359 17.25
    endloop
  endfacet
  facet normal 0 0 1
    outer loop
      vertex 6.06763 4.40839 17.25
      vertex 4.8541 3.52671 17.25
      vertex 5.48127 2.44042 17.25
    endloop
  endfacet
  facet normal 0 0 1
    outer loop
      vertex 5.01848 5.57359 17.25
      vertex 4.01478 4.45887 17.25
      vertex 4.8541 3.52671 17.25
    endloop
  endfacet
  facet normal 0 0 1
    outer loop
      vertex 3.75 6.49519 17.25
      vertex 4.01478 4.45887 17.25
      vertex 5.01848 5.57359 17.25
    endloop
  endfacet
  facet normal 0 0 1
    outer loop
      vertex 3.75 6.49519 17.25
      vertex 3 5.19615 17.25
      vertex 4.01478 4.45887 17.25
    endloop
  endfacet
  facet normal 0 0 1
    outer loop
      vertex 2.31763 7.13292 17.25
      vertex 3 5.19615 17.25
      vertex 3.75 6.49519 17.25
    endloop
  endfacet
  facet normal 0 0 1
    outer loop
      vertex 2.31763 7.13292 17.25
      vertex 1.8541 5.70634 17.25
      vertex 3 5.19615 17.25
    endloop
  endfacet
  facet normal 0 0 1
    outer loop
      vertex 0.783963 7.45891 17.25
      vertex 1.8541 5.70634 17.25
      vertex 2.31763 7.13292 17.25
    endloop
  endfacet
  facet normal 0 0 1
    outer loop
      vertex 0.783963 7.45891 17.25
      vertex 0.627171 5.96713 17.25
      vertex 1.8541 5.70634 17.25
    endloop
  endfacet
  facet normal 0 0 1
    outer loop
      vertex 0.783963 7.45891 17.25
      vertex -0.627171 5.96713 17.25
      vertex 0.627171 5.96713 17.25
    endloop
  endfacet
  facet normal -0 0 1
    outer loop
      vertex -0.783963 7.45891 17.25
      vertex -0.627171 5.96713 17.25
      vertex 0.783963 7.45891 17.25
    endloop
  endfacet
  facet normal 0 0 1
    outer loop
      vertex -0.783963 7.45891 17.25
      vertex -1.8541 5.70634 17.25
      vertex -0.627171 5.96713 17.25
    endloop
  endfacet
  facet normal -0 0 1
    outer loop
      vertex -2.31763 7.13292 17.25
      vertex -1.8541 5.70634 17.25
      vertex -0.783963 7.45891 17.25
    endloop
  endfacet
  facet normal 0 0 1
    outer loop
      vertex -2.31763 7.13292 17.25
      vertex -3 5.19615 17.25
      vertex -1.8541 5.70634 17.25
    endloop
  endfacet
  facet normal -0 0 1
    outer loop
      vertex -3.75 6.49519 17.25
      vertex -3 5.19615 17.25
      vertex -2.31763 7.13292 17.25
    endloop
  endfacet
  facet normal 0 0 1
    outer loop
      vertex -3.75 6.49519 17.25
      vertex -4.01478 4.45887 17.25
      vertex -3 5.19615 17.25
    endloop
  endfacet
  facet normal -0 0 1
    outer loop
      vertex -5.01848 5.57359 17.25
      vertex -4.01478 4.45887 17.25
      vertex -3.75 6.49519 17.25
    endloop
  endfacet
  facet normal 0 0 1
    outer loop
      vertex -4.01478 4.45887 17.25
      vertex -5.01848 5.57359 17.25
      vertex -4.8541 3.52671 17.25
    endloop
  endfacet
  facet normal -0 0 1
    outer loop
      vertex -6.06763 4.40839 17.25
      vertex -4.8541 3.52671 17.25
      vertex -5.01848 5.57359 17.25
    endloop
  endfacet
  facet normal 0 0 1
    outer loop
      vertex -4.8541 3.52671 17.25
      vertex -6.06763 4.40839 17.25
      vertex -5.48127 2.44042 17.25
    endloop
  endfacet
  facet normal 0 0 1
    outer loop
      vertex -5.48127 2.44042 17.25
      vertex -6.85159 3.05052 17.25
      vertex -5.86889 1.24747 17.25
    endloop
  endfacet
  facet normal -0 0 1
    outer loop
      vertex -6.85159 3.05052 17.25
      vertex -5.48127 2.44042 17.25
      vertex -6.06763 4.40839 17.25
    endloop
  endfacet
  facet normal -0 0 1
    outer loop
      vertex 5.48127 -2.44042 17.25
      vertex 6.85159 -3.05052 17.25
      vertex 5.86889 -1.24747 17.25
    endloop
  endfacet
  facet normal 0 0 1
    outer loop
      vertex 6.85159 -3.05052 17.25
      vertex 5.48127 -2.44042 17.25
      vertex 6.06763 -4.40839 17.25
    endloop
  endfacet
  facet normal -0 0 1
    outer loop
      vertex 4.8541 -3.52671 17.25
      vertex 6.06763 -4.40839 17.25
      vertex 5.48127 -2.44042 17.25
    endloop
  endfacet
  facet normal 0 0 1
    outer loop
      vertex 6.06763 -4.40839 17.25
      vertex 4.8541 -3.52671 17.25
      vertex 5.01848 -5.57359 17.25
    endloop
  endfacet
  facet normal -0 0 1
    outer loop
      vertex 4.01478 -4.45887 17.25
      vertex 5.01848 -5.57359 17.25
      vertex 4.8541 -3.52671 17.25
    endloop
  endfacet
  facet normal 0 0 1
    outer loop
      vertex 4.01478 -4.45887 17.25
      vertex 3.75 -6.49519 17.25
      vertex 5.01848 -5.57359 17.25
    endloop
  endfacet
  facet normal -0 0 1
    outer loop
      vertex 3 -5.19615 17.25
      vertex 3.75 -6.49519 17.25
      vertex 4.01478 -4.45887 17.25
    endloop
  endfacet
  facet normal 0 0 1
    outer loop
      vertex 3 -5.19615 17.25
      vertex 2.31763 -7.13292 17.25
      vertex 3.75 -6.49519 17.25
    endloop
  endfacet
  facet normal -0 0 1
    outer loop
      vertex 1.8541 -5.70634 17.25
      vertex 2.31763 -7.13292 17.25
      vertex 3 -5.19615 17.25
    endloop
  endfacet
  facet normal 0 0 1
    outer loop
      vertex 1.8541 -5.70634 17.25
      vertex 0.783963 -7.45891 17.25
      vertex 2.31763 -7.13292 17.25
    endloop
  endfacet
  facet normal -0 0 1
    outer loop
      vertex 0.627171 -5.96713 17.25
      vertex 0.783963 -7.45891 17.25
      vertex 1.8541 -5.70634 17.25
    endloop
  endfacet
  facet normal -0 0 1
    outer loop
      vertex -0.627171 -5.96713 17.25
      vertex 0.783963 -7.45891 17.25
      vertex 0.627171 -5.96713 17.25
    endloop
  endfacet
  facet normal 0 0 1
    outer loop
      vertex -0.627171 -5.96713 17.25
      vertex -0.783963 -7.45891 17.25
      vertex 0.783963 -7.45891 17.25
    endloop
  endfacet
  facet normal 0 0 1
    outer loop
      vertex -1.8541 -5.70634 17.25
      vertex -0.783963 -7.45891 17.25
      vertex -0.627171 -5.96713 17.25
    endloop
  endfacet
  facet normal 0 0 1
    outer loop
      vertex -1.8541 -5.70634 17.25
      vertex -2.31763 -7.13292 17.25
      vertex -0.783963 -7.45891 17.25
    endloop
  endfacet
  facet normal 0 0 1
    outer loop
      vertex -3 -5.19615 17.25
      vertex -2.31763 -7.13292 17.25
      vertex -1.8541 -5.70634 17.25
    endloop
  endfacet
  facet normal 0 0 1
    outer loop
      vertex -3 -5.19615 17.25
      vertex -3.75 -6.49519 17.25
      vertex -2.31763 -7.13292 17.25
    endloop
  endfacet
  facet normal 0 0 1
    outer loop
      vertex -4.01478 -4.45887 17.25
      vertex -3.75 -6.49519 17.25
      vertex -3 -5.19615 17.25
    endloop
  endfacet
  facet normal 0 0 1
    outer loop
      vertex -5.01848 -5.57359 17.25
      vertex -4.01478 -4.45887 17.25
      vertex -4.8541 -3.52671 17.25
    endloop
  endfacet
  facet normal 0 0 1
    outer loop
      vertex -4.01478 -4.45887 17.25
      vertex -5.01848 -5.57359 17.25
      vertex -3.75 -6.49519 17.25
    endloop
  endfacet
  facet normal 0 0 1
    outer loop
      vertex -6.06763 -4.40839 17.25
      vertex -4.8541 -3.52671 17.25
      vertex -5.48127 -2.44042 17.25
    endloop
  endfacet
  facet normal 0 0 1
    outer loop
      vertex -6.85159 -3.05052 17.25
      vertex -5.48127 -2.44042 17.25
      vertex -5.86889 -1.24747 17.25
    endloop
  endfacet
  facet normal 0 0 1
    outer loop
      vertex -4.8541 -3.52671 17.25
      vertex -6.06763 -4.40839 17.25
      vertex -5.01848 -5.57359 17.25
    endloop
  endfacet
  facet normal 0 0 1
    outer loop
      vertex -7.33611 -1.55934 17.25
      vertex -5.86889 -1.24747 17.25
      vertex -6 0 17.25
    endloop
  endfacet
  facet normal -0 0 1
    outer loop
      vertex -7.33611 1.55934 17.25
      vertex -5.86889 1.24747 17.25
      vertex -6.85159 3.05052 17.25
    endloop
  endfacet
  facet normal 0 0 1
    outer loop
      vertex -5.86889 1.24747 17.25
      vertex -7.33611 1.55934 17.25
      vertex -6 0 17.25
    endloop
  endfacet
  facet normal 0 0 1
    outer loop
      vertex -5.48127 -2.44042 17.25
      vertex -6.85159 -3.05052 17.25
      vertex -6.06763 -4.40839 17.25
    endloop
  endfacet
  facet normal 0 0 1
    outer loop
      vertex -7.5 0 17.25
      vertex -6 0 17.25
      vertex -7.33611 1.55934 17.25
    endloop
  endfacet
  facet normal 0 0 1
    outer loop
      vertex -5.86889 -1.24747 17.25
      vertex -7.33611 -1.55934 17.25
      vertex -6.85159 -3.05052 17.25
    endloop
  endfacet
  facet normal 0 0 1
    outer loop
      vertex -6 0 17.25
      vertex -7.5 0 17.25
      vertex -7.33611 -1.55934 17.25
    endloop
  endfacet
  facet normal -0.587783 -0.809018 0
    outer loop
      vertex -5.01848 -5.57359 0
      vertex -3.75 -6.49519 17.25
      vertex -5.01848 -5.57359 17.25
    endloop
  endfacet
  facet normal -0.587783 -0.809018 -0
    outer loop
      vertex -3.75 -6.49519 17.25
      vertex -5.01848 -5.57359 0
      vertex -3.75 -6.49519 0
    endloop
  endfacet
  facet normal 0.866027 -0.499997 0
    outer loop
      vertex 6.06763 -4.40839 17.25
      vertex 6.85159 -3.05052 0
      vertex 6.85159 -3.05052 17.25
    endloop
  endfacet
  facet normal 0.866027 -0.499997 0
    outer loop
      vertex 6.85159 -3.05052 0
      vertex 6.06763 -4.40839 17.25
      vertex 6.06763 -4.40839 0
    endloop
  endfacet
  facet normal 0.743145 -0.66913 0
    outer loop
      vertex 5.01848 -5.57359 17.25
      vertex 6.06763 -4.40839 0
      vertex 6.06763 -4.40839 17.25
    endloop
  endfacet
  facet normal 0.743145 -0.66913 0
    outer loop
      vertex 6.06763 -4.40839 0
      vertex 5.01848 -5.57359 17.25
      vertex 5.01848 -5.57359 0
    endloop
  endfacet
  facet normal -0.994522 0.104526 0
    outer loop
      vertex -7.5 0 0
      vertex -7.33611 1.55934 17.25
      vertex -7.33611 1.55934 0
    endloop
  endfacet
  facet normal -0.994522 0.104526 0
    outer loop
      vertex -7.33611 1.55934 17.25
      vertex -7.5 0 0
      vertex -7.5 0 17.25
    endloop
  endfacet
  facet normal -0.951055 -0.309021 0
    outer loop
      vertex -6.85159 -3.05052 0
      vertex -7.33611 -1.55934 17.25
      vertex -7.33611 -1.55934 0
    endloop
  endfacet
  facet normal -0.951055 -0.309021 0
    outer loop
      vertex -7.33611 -1.55934 17.25
      vertex -6.85159 -3.05052 0
      vertex -6.85159 -3.05052 17.25
    endloop
  endfacet
  facet normal 0.951055 -0.309021 0
    outer loop
      vertex 6.85159 -3.05052 17.25
      vertex 7.33611 -1.55934 0
      vertex 7.33611 -1.55934 17.25
    endloop
  endfacet
  facet normal 0.951055 -0.309021 0
    outer loop
      vertex 7.33611 -1.55934 0
      vertex 6.85159 -3.05052 17.25
      vertex 6.85159 -3.05052 0
    endloop
  endfacet
  facet normal -0.207911 0.978148 0
    outer loop
      vertex -0.783963 7.45891 0
      vertex -2.31763 7.13292 17.25
      vertex -0.783963 7.45891 17.25
    endloop
  endfacet
  facet normal -0.207911 0.978148 0
    outer loop
      vertex -2.31763 7.13292 17.25
      vertex -0.783963 7.45891 0
      vertex -2.31763 7.13292 0
    endloop
  endfacet
  facet normal -0.406735 0.913546 0
    outer loop
      vertex -2.31763 7.13292 0
      vertex -3.75 6.49519 17.25
      vertex -2.31763 7.13292 17.25
    endloop
  endfacet
  facet normal -0.406735 0.913546 0
    outer loop
      vertex -3.75 6.49519 17.25
      vertex -2.31763 7.13292 0
      vertex -3.75 6.49519 0
    endloop
  endfacet
  facet normal 0.587783 0.809018 -0
    outer loop
      vertex 5.01848 5.57359 0
      vertex 3.75 6.49519 17.25
      vertex 5.01848 5.57359 17.25
    endloop
  endfacet
  facet normal 0.587783 0.809018 0
    outer loop
      vertex 3.75 6.49519 17.25
      vertex 5.01848 5.57359 0
      vertex 3.75 6.49519 0
    endloop
  endfacet
  facet normal 0.406735 0.913546 -0
    outer loop
      vertex 3.75 6.49519 0
      vertex 2.31763 7.13292 17.25
      vertex 3.75 6.49519 17.25
    endloop
  endfacet
  facet normal 0.406735 0.913546 0
    outer loop
      vertex 2.31763 7.13292 17.25
      vertex 3.75 6.49519 0
      vertex 2.31763 7.13292 0
    endloop
  endfacet
  facet normal -0.743145 -0.66913 0
    outer loop
      vertex -5.01848 -5.57359 0
      vertex -6.06763 -4.40839 17.25
      vertex -6.06763 -4.40839 0
    endloop
  endfacet
  facet normal -0.743145 -0.66913 0
    outer loop
      vertex -6.06763 -4.40839 17.25
      vertex -5.01848 -5.57359 0
      vertex -5.01848 -5.57359 17.25
    endloop
  endfacet
  facet normal 0 0 -1
    outer loop
      vertex 4.175 0 0
      vertex 7.5 0 0
      vertex 7.33611 -1.55934 0
    endloop
  endfacet
  facet normal 0 0 -1
    outer loop
      vertex 4.06246 -0.962821 0
      vertex 7.33611 -1.55934 0
      vertex 6.85159 -3.05052 0
    endloop
  endfacet
  facet normal 0 0 -1
    outer loop
      vertex 7.5 0 0
      vertex 4.175 0 0
      vertex 7.33611 1.55934 0
    endloop
  endfacet
  facet normal 0 0 -1
    outer loop
      vertex 3.73092 -1.87374 0
      vertex 6.85159 -3.05052 0
      vertex 6.06763 -4.40839 0
    endloop
  endfacet
  facet normal 0 0 -1
    outer loop
      vertex 4.06246 0.962821 0
      vertex 7.33611 1.55934 0
      vertex 4.175 0 0
    endloop
  endfacet
  facet normal 0 0 -1
    outer loop
      vertex 3.19824 -2.68364 0
      vertex 6.06763 -4.40839 0
      vertex 5.01848 -5.57359 0
    endloop
  endfacet
  facet normal -0 0 -1
    outer loop
      vertex 7.33611 1.55934 0
      vertex 4.06246 0.962821 0
      vertex 6.85159 3.05052 0
    endloop
  endfacet
  facet normal 0 0 -1
    outer loop
      vertex 3.73092 1.87374 0
      vertex 6.85159 3.05052 0
      vertex 4.06246 0.962821 0
    endloop
  endfacet
  facet normal 0 0 -1
    outer loop
      vertex 7.33611 -1.55934 0
      vertex 4.06246 -0.962821 0
      vertex 4.175 0 0
    endloop
  endfacet
  facet normal 0 0 -1
    outer loop
      vertex 2.49314 -3.34886 0
      vertex 5.01848 -5.57359 0
      vertex 3.75 -6.49519 0
    endloop
  endfacet
  facet normal 0 0 -1
    outer loop
      vertex 6.85159 -3.05052 0
      vertex 3.73092 -1.87374 0
      vertex 4.06246 -0.962821 0
    endloop
  endfacet
  facet normal 0 0 -1
    outer loop
      vertex 6.06763 -4.40839 0
      vertex 3.19824 -2.68364 0
      vertex 3.73092 -1.87374 0
    endloop
  endfacet
  facet normal 0 0 -1
    outer loop
      vertex 5.01848 -5.57359 0
      vertex 2.49314 -3.34886 0
      vertex 3.19824 -2.68364 0
    endloop
  endfacet
  facet normal 0 0 -1
    outer loop
      vertex 1.65363 -3.83355 0
      vertex 3.75 -6.49519 0
      vertex 2.31763 -7.13292 0
    endloop
  endfacet
  facet normal 0 0 -1
    outer loop
      vertex 3.75 -6.49519 0
      vertex 1.65363 -3.83355 0
      vertex 2.49314 -3.34886 0
    endloop
  endfacet
  facet normal 0 0 -1
    outer loop
      vertex 0.72498 -4.11157 0
      vertex 2.31763 -7.13292 0
      vertex 0.783963 -7.45891 0
    endloop
  endfacet
  facet normal 0 0 -1
    outer loop
      vertex 2.31763 -7.13292 0
      vertex 0.72498 -4.11157 0
      vertex 1.65363 -3.83355 0
    endloop
  endfacet
  facet normal 0 0 -1
    outer loop
      vertex 0.783963 -7.45891 0
      vertex -0.242754 -4.16794 0
      vertex 0.72498 -4.11157 0
    endloop
  endfacet
  facet normal 0 0 -1
    outer loop
      vertex -0.783963 -7.45891 0
      vertex -0.242754 -4.16794 0
      vertex 0.783963 -7.45891 0
    endloop
  endfacet
  facet normal 0 0 -1
    outer loop
      vertex -0.783963 -7.45891 0
      vertex -1.1974 -3.99961 0
      vertex -0.242754 -4.16794 0
    endloop
  endfacet
  facet normal 0 0 -1
    outer loop
      vertex -2.31763 -7.13292 0
      vertex -1.1974 -3.99961 0
      vertex -0.783963 -7.45891 0
    endloop
  endfacet
  facet normal -0 0 -1
    outer loop
      vertex -1.1974 -3.99961 0
      vertex -2.31763 -7.13292 0
      vertex -2.0875 -3.61566 0
    endloop
  endfacet
  facet normal 0 0 -1
    outer loop
      vertex -3.75 -6.49519 0
      vertex -2.0875 -3.61566 0
      vertex -2.31763 -7.13292 0
    endloop
  endfacet
  facet normal 0 0 -1
    outer loop
      vertex -5.01848 -5.57359 0
      vertex -2.0875 -3.61566 0
      vertex -3.75 -6.49519 0
    endloop
  endfacet
  facet normal -0 0 -1
    outer loop
      vertex -2.0875 -3.61566 0
      vertex -5.01848 -5.57359 0
      vertex -2.86506 -3.03678 0
    endloop
  endfacet
  facet normal 0 0 -1
    outer loop
      vertex -6.06763 -4.40839 0
      vertex -2.86506 -3.03678 0
      vertex -5.01848 -5.57359 0
    endloop
  endfacet
  facet normal -0 0 -1
    outer loop
      vertex -2.86506 -3.03678 0
      vertex -6.06763 -4.40839 0
      vertex -3.48816 -2.2942 0
    endloop
  endfacet
  facet normal -0 0 -1
    outer loop
      vertex -3.48816 -2.2942 0
      vertex -6.85159 -3.05052 0
      vertex -3.92322 -1.42793 0
    endloop
  endfacet
  facet normal 0 0 -1
    outer loop
      vertex -6.85159 -3.05052 0
      vertex -3.48816 -2.2942 0
      vertex -6.06763 -4.40839 0
    endloop
  endfacet
  facet normal -0 0 -1
    outer loop
      vertex 6.85159 3.05052 0
      vertex 3.73092 1.87374 0
      vertex 6.06763 4.40839 0
    endloop
  endfacet
  facet normal 0 0 -1
    outer loop
      vertex 3.19824 2.68364 0
      vertex 6.06763 4.40839 0
      vertex 3.73092 1.87374 0
    endloop
  endfacet
  facet normal -0 0 -1
    outer loop
      vertex 6.06763 4.40839 0
      vertex 3.19824 2.68364 0
      vertex 5.01848 5.57359 0
    endloop
  endfacet
  facet normal 0 0 -1
    outer loop
      vertex 2.49314 3.34886 0
      vertex 5.01848 5.57359 0
      vertex 3.19824 2.68364 0
    endloop
  endfacet
  facet normal -0 0 -1
    outer loop
      vertex 5.01848 5.57359 0
      vertex 2.49314 3.34886 0
      vertex 3.75 6.49519 0
    endloop
  endfacet
  facet normal 0 0 -1
    outer loop
      vertex 1.65363 3.83355 0
      vertex 3.75 6.49519 0
      vertex 2.49314 3.34886 0
    endloop
  endfacet
  facet normal -0 0 -1
    outer loop
      vertex 3.75 6.49519 0
      vertex 1.65363 3.83355 0
      vertex 2.31763 7.13292 0
    endloop
  endfacet
  facet normal 0 0 -1
    outer loop
      vertex 0.72498 4.11157 0
      vertex 2.31763 7.13292 0
      vertex 1.65363 3.83355 0
    endloop
  endfacet
  facet normal -0 0 -1
    outer loop
      vertex 2.31763 7.13292 0
      vertex 0.72498 4.11157 0
      vertex 0.783963 7.45891 0
    endloop
  endfacet
  facet normal 0 0 -1
    outer loop
      vertex -0.242754 4.16794 0
      vertex 0.783963 7.45891 0
      vertex 0.72498 4.11157 0
    endloop
  endfacet
  facet normal 0 0 -1
    outer loop
      vertex -0.242754 4.16794 0
      vertex -0.783963 7.45891 0
      vertex 0.783963 7.45891 0
    endloop
  endfacet
  facet normal 0 0 -1
    outer loop
      vertex -1.1974 3.99961 0
      vertex -0.783963 7.45891 0
      vertex -0.242754 4.16794 0
    endloop
  endfacet
  facet normal 0 0 -1
    outer loop
      vertex -2.31763 7.13292 0
      vertex -1.1974 3.99961 0
      vertex -2.0875 3.61566 0
    endloop
  endfacet
  facet normal 0 0 -1
    outer loop
      vertex -1.1974 3.99961 0
      vertex -2.31763 7.13292 0
      vertex -0.783963 7.45891 0
    endloop
  endfacet
  facet normal 0 0 -1
    outer loop
      vertex -5.01848 5.57359 0
      vertex -2.0875 3.61566 0
      vertex -2.86506 3.03678 0
    endloop
  endfacet
  facet normal 0 0 -1
    outer loop
      vertex -6.06763 4.40839 0
      vertex -2.86506 3.03678 0
      vertex -3.48816 2.2942 0
    endloop
  endfacet
  facet normal 0 0 -1
    outer loop
      vertex -2.0875 3.61566 0
      vertex -3.75 6.49519 0
      vertex -2.31763 7.13292 0
    endloop
  endfacet
  facet normal 0 0 -1
    outer loop
      vertex -6.85159 3.05052 0
      vertex -3.48816 2.2942 0
      vertex -3.92322 1.42793 0
    endloop
  endfacet
  facet normal 0 0 -1
    outer loop
      vertex -7.33611 1.55934 0
      vertex -3.92322 1.42793 0
      vertex -4.14677 0.484688 0
    endloop
  endfacet
  facet normal 0 0 -1
    outer loop
      vertex -7.33611 -1.55934 0
      vertex -3.92322 -1.42793 0
      vertex -6.85159 -3.05052 0
    endloop
  endfacet
  facet normal 0 0 -1
    outer loop
      vertex -2.0875 3.61566 0
      vertex -5.01848 5.57359 0
      vertex -3.75 6.49519 0
    endloop
  endfacet
  facet normal -0 0 -1
    outer loop
      vertex -3.92322 -1.42793 0
      vertex -7.33611 -1.55934 0
      vertex -4.14677 -0.484688 0
    endloop
  endfacet
  facet normal 0 0 -1
    outer loop
      vertex -2.86506 3.03678 0
      vertex -6.06763 4.40839 0
      vertex -5.01848 5.57359 0
    endloop
  endfacet
  facet normal 0 0 -1
    outer loop
      vertex -7.5 0 0
      vertex -4.14677 -0.484688 0
      vertex -7.33611 -1.55934 0
    endloop
  endfacet
  facet normal 0 0 -1
    outer loop
      vertex -3.48816 2.2942 0
      vertex -6.85159 3.05052 0
      vertex -6.06763 4.40839 0
    endloop
  endfacet
  facet normal 0 0 -1
    outer loop
      vertex -4.14677 -0.484688 0
      vertex -7.5 0 0
      vertex -4.14677 0.484688 0
    endloop
  endfacet
  facet normal 0 0 -1
    outer loop
      vertex -3.92322 1.42793 0
      vertex -7.33611 1.55934 0
      vertex -6.85159 3.05052 0
    endloop
  endfacet
  facet normal -0 0 -1
    outer loop
      vertex -4.14677 0.484688 0
      vertex -7.5 0 0
      vertex -7.33611 1.55934 0
    endloop
  endfacet
  facet normal 0.207911 -0.978148 0
    outer loop
      vertex 0.783963 -7.45891 0
      vertex 2.31763 -7.13292 17.25
      vertex 0.783963 -7.45891 17.25
    endloop
  endfacet
  facet normal 0.207911 -0.978148 0
    outer loop
      vertex 2.31763 -7.13292 17.25
      vertex 0.783963 -7.45891 0
      vertex 2.31763 -7.13292 0
    endloop
  endfacet
  facet normal -0.406735 -0.913546 0
    outer loop
      vertex -3.75 -6.49519 0
      vertex -2.31763 -7.13292 17.25
      vertex -3.75 -6.49519 17.25
    endloop
  endfacet
  facet normal -0.406735 -0.913546 -0
    outer loop
      vertex -2.31763 -7.13292 17.25
      vertex -3.75 -6.49519 0
      vertex -2.31763 -7.13292 0
    endloop
  endfacet
  facet normal -0.207911 -0.978148 0
    outer loop
      vertex -2.31763 -7.13292 0
      vertex -0.783963 -7.45891 17.25
      vertex -2.31763 -7.13292 17.25
    endloop
  endfacet
  facet normal -0.207911 -0.978148 -0
    outer loop
      vertex -0.783963 -7.45891 17.25
      vertex -2.31763 -7.13292 0
      vertex -0.783963 -7.45891 0
    endloop
  endfacet
  facet normal -0.866027 0.499997 0
    outer loop
      vertex -6.85159 3.05052 0
      vertex -6.06763 4.40839 17.25
      vertex -6.06763 4.40839 0
    endloop
  endfacet
  facet normal -0.866027 0.499997 0
    outer loop
      vertex -6.06763 4.40839 17.25
      vertex -6.85159 3.05052 0
      vertex -6.85159 3.05052 17.25
    endloop
  endfacet
  facet normal -0.743145 0.66913 0
    outer loop
      vertex -6.06763 4.40839 0
      vertex -5.01848 5.57359 17.25
      vertex -5.01848 5.57359 0
    endloop
  endfacet
  facet normal -0.743145 0.66913 0
    outer loop
      vertex -5.01848 5.57359 17.25
      vertex -6.06763 4.40839 0
      vertex -6.06763 4.40839 17.25
    endloop
  endfacet
  facet normal -0.499999 0.866026 0
    outer loop
      vertex 2.49314 -3.34886 0
      vertex 1.65363 -3.83355 13
      vertex 2.49314 -3.34886 13
    endloop
  endfacet
  facet normal -0.499999 0.866026 0
    outer loop
      vertex 1.65363 -3.83355 13
      vertex 2.49314 -3.34886 0
      vertex 1.65363 -3.83355 0
    endloop
  endfacet
  facet normal -0.939695 -0.342013 0
    outer loop
      vertex 4.06246 0.962821 0
      vertex 3.73092 1.87374 13
      vertex 3.73092 1.87374 0
    endloop
  endfacet
  facet normal -0.939695 -0.342013 0
    outer loop
      vertex 3.73092 1.87374 13
      vertex 4.06246 0.962821 0
      vertex 4.06246 0.962821 13
    endloop
  endfacet
  facet normal -0.993238 -0.116095 0
    outer loop
      vertex 4.175 0 0
      vertex 4.06246 0.962821 13
      vertex 4.06246 0.962821 0
    endloop
  endfacet
  facet normal -0.993238 -0.116095 0
    outer loop
      vertex 4.06246 0.962821 13
      vertex 4.175 0 0
      vertex 4.175 0 13
    endloop
  endfacet
  facet normal -0.835488 -0.549509 0
    outer loop
      vertex 3.73092 1.87374 0
      vertex 3.19824 2.68364 13
      vertex 3.19824 2.68364 0
    endloop
  endfacet
  facet normal -0.835488 -0.549509 0
    outer loop
      vertex 3.19824 2.68364 13
      vertex 3.73092 1.87374 0
      vertex 3.73092 1.87374 13
    endloop
  endfacet
  facet normal -0.993238 0.116095 0
    outer loop
      vertex 4.06246 -0.962821 0
      vertex 4.175 0 13
      vertex 4.175 0 0
    endloop
  endfacet
  facet normal -0.993238 0.116095 0
    outer loop
      vertex 4.175 0 13
      vertex 4.06246 -0.962821 0
      vertex 4.06246 -0.962821 13
    endloop
  endfacet
  facet normal -0.0581509 0.998308 0
    outer loop
      vertex 0.72498 -4.11157 0
      vertex -0.242754 -4.16794 13
      vertex 0.72498 -4.11157 13
    endloop
  endfacet
  facet normal -0.0581509 0.998308 0
    outer loop
      vertex -0.242754 -4.16794 13
      vertex 0.72498 -4.11157 0
      vertex -0.242754 -4.16794 0
    endloop
  endfacet
  facet normal -0.686238 -0.727378 0
    outer loop
      vertex 2.49314 3.34886 0
      vertex 3.19824 2.68364 13
      vertex 2.49314 3.34886 13
    endloop
  endfacet
  facet normal -0.686238 -0.727378 -0
    outer loop
      vertex 3.19824 2.68364 13
      vertex 2.49314 3.34886 0
      vertex 3.19824 2.68364 0
    endloop
  endfacet
  facet normal 0.396078 0.918217 -0
    outer loop
      vertex -1.1974 -3.99961 0
      vertex -2.0875 -3.61566 13
      vertex -1.1974 -3.99961 13
    endloop
  endfacet
  facet normal 0.396078 0.918217 0
    outer loop
      vertex -2.0875 -3.61566 13
      vertex -1.1974 -3.99961 0
      vertex -2.0875 -3.61566 0
    endloop
  endfacet
  facet normal -0.939695 0.342013 0
    outer loop
      vertex 3.73092 -1.87374 0
      vertex 4.06246 -0.962821 13
      vertex 4.06246 -0.962821 0
    endloop
  endfacet
  facet normal -0.939695 0.342013 0
    outer loop
      vertex 4.06246 -0.962821 13
      vertex 3.73092 -1.87374 0
      vertex 3.73092 -1.87374 13
    endloop
  endfacet
  facet normal -0.686238 0.727378 0
    outer loop
      vertex 3.19824 -2.68364 0
      vertex 2.49314 -3.34886 13
      vertex 3.19824 -2.68364 13
    endloop
  endfacet
  facet normal -0.686238 0.727378 0
    outer loop
      vertex 2.49314 -3.34886 13
      vertex 3.19824 -2.68364 0
      vertex 2.49314 -3.34886 0
    endloop
  endfacet
  facet normal 0.597164 -0.802119 0
    outer loop
      vertex -2.86506 3.03678 0
      vertex -2.0875 3.61566 13
      vertex -2.86506 3.03678 13
    endloop
  endfacet
  facet normal 0.597164 -0.802119 0
    outer loop
      vertex -2.0875 3.61566 13
      vertex -2.86506 3.03678 0
      vertex -2.0875 3.61566 0
    endloop
  endfacet
  facet normal 0.893631 0.448802 0
    outer loop
      vertex -3.48816 -2.2942 13
      vertex -3.92322 -1.42793 0
      vertex -3.92322 -1.42793 13
    endloop
  endfacet
  facet normal 0.893631 0.448802 0
    outer loop
      vertex -3.92322 -1.42793 0
      vertex -3.48816 -2.2942 13
      vertex -3.48816 -2.2942 0
    endloop
  endfacet
  facet normal 0.396078 -0.918217 0
    outer loop
      vertex -2.0875 3.61566 0
      vertex -1.1974 3.99961 13
      vertex -2.0875 3.61566 13
    endloop
  endfacet
  facet normal 0.396078 -0.918217 0
    outer loop
      vertex -1.1974 3.99961 13
      vertex -2.0875 3.61566 0
      vertex -1.1974 3.99961 0
    endloop
  endfacet
  facet normal -0.499999 -0.866026 0
    outer loop
      vertex 1.65363 3.83355 0
      vertex 2.49314 3.34886 13
      vertex 1.65363 3.83355 13
    endloop
  endfacet
  facet normal -0.499999 -0.866026 -0
    outer loop
      vertex 2.49314 3.34886 13
      vertex 1.65363 3.83355 0
      vertex 2.49314 3.34886 0
    endloop
  endfacet
  facet normal -0.0581509 -0.998308 0
    outer loop
      vertex -0.242754 4.16794 0
      vertex 0.72498 4.11157 13
      vertex -0.242754 4.16794 13
    endloop
  endfacet
  facet normal -0.0581509 -0.998308 -0
    outer loop
      vertex 0.72498 4.11157 13
      vertex -0.242754 4.16794 0
      vertex 0.72498 4.11157 0
    endloop
  endfacet
  facet normal 0.173648 -0.984808 0
    outer loop
      vertex -1.1974 3.99961 0
      vertex -0.242754 4.16794 13
      vertex -1.1974 3.99961 13
    endloop
  endfacet
  facet normal 0.173648 -0.984808 0
    outer loop
      vertex -0.242754 4.16794 13
      vertex -1.1974 3.99961 0
      vertex -0.242754 4.16794 0
    endloop
  endfacet
  facet normal 0.597164 0.802119 -0
    outer loop
      vertex -2.0875 -3.61566 0
      vertex -2.86506 -3.03678 13
      vertex -2.0875 -3.61566 13
    endloop
  endfacet
  facet normal 0.597164 0.802119 0
    outer loop
      vertex -2.86506 -3.03678 13
      vertex -2.0875 -3.61566 0
      vertex -2.86506 -3.03678 0
    endloop
  endfacet
  facet normal -0.835488 0.549509 0
    outer loop
      vertex 3.19824 -2.68364 0
      vertex 3.73092 -1.87374 13
      vertex 3.73092 -1.87374 0
    endloop
  endfacet
  facet normal -0.835488 0.549509 0
    outer loop
      vertex 3.73092 -1.87374 13
      vertex 3.19824 -2.68364 0
      vertex 3.19824 -2.68364 13
    endloop
  endfacet
  facet normal -0.286804 0.957989 0
    outer loop
      vertex 1.65363 -3.83355 0
      vertex 0.72498 -4.11157 13
      vertex 1.65363 -3.83355 13
    endloop
  endfacet
  facet normal -0.286804 0.957989 0
    outer loop
      vertex 0.72498 -4.11157 13
      vertex 1.65363 -3.83355 0
      vertex 0.72498 -4.11157 0
    endloop
  endfacet
  facet normal -0.286804 -0.957989 0
    outer loop
      vertex 0.72498 4.11157 0
      vertex 1.65363 3.83355 13
      vertex 0.72498 4.11157 13
    endloop
  endfacet
  facet normal -0.286804 -0.957989 -0
    outer loop
      vertex 1.65363 3.83355 13
      vertex 0.72498 4.11157 0
      vertex 1.65363 3.83355 0
    endloop
  endfacet
  facet normal 1 -0 0
    outer loop
      vertex -4.14677 -0.484688 13
      vertex -4.14677 0.484688 0
      vertex -4.14677 0.484688 13
    endloop
  endfacet
  facet normal 1 0 0
    outer loop
      vertex -4.14677 0.484688 0
      vertex -4.14677 -0.484688 13
      vertex -4.14677 -0.484688 0
    endloop
  endfacet
  facet normal 0.173648 0.984808 -0
    outer loop
      vertex -0.242754 -4.16794 0
      vertex -1.1974 -3.99961 13
      vertex -0.242754 -4.16794 13
    endloop
  endfacet
  facet normal 0.173648 0.984808 0
    outer loop
      vertex -1.1974 -3.99961 13
      vertex -0.242754 -4.16794 0
      vertex -1.1974 -3.99961 0
    endloop
  endfacet
  facet normal 0.766044 -0.642788 0
    outer loop
      vertex -3.48816 2.2942 13
      vertex -2.86506 3.03678 0
      vertex -2.86506 3.03678 13
    endloop
  endfacet
  facet normal 0.766044 -0.642788 0
    outer loop
      vertex -2.86506 3.03678 0
      vertex -3.48816 2.2942 13
      vertex -3.48816 2.2942 0
    endloop
  endfacet
  facet normal 0.766044 0.642788 0
    outer loop
      vertex -2.86506 -3.03678 13
      vertex -3.48816 -2.2942 0
      vertex -3.48816 -2.2942 13
    endloop
  endfacet
  facet normal 0.766044 0.642788 0
    outer loop
      vertex -3.48816 -2.2942 0
      vertex -2.86506 -3.03678 13
      vertex -2.86506 -3.03678 0
    endloop
  endfacet
  facet normal 0.893631 -0.448802 0
    outer loop
      vertex -3.92322 1.42793 13
      vertex -3.48816 2.2942 0
      vertex -3.48816 2.2942 13
    endloop
  endfacet
  facet normal 0.893631 -0.448802 0
    outer loop
      vertex -3.48816 2.2942 0
      vertex -3.92322 1.42793 13
      vertex -3.92322 1.42793 0
    endloop
  endfacet
  facet normal 0.973045 0.230613 0
    outer loop
      vertex -3.92322 -1.42793 13
      vertex -4.14677 -0.484688 0
      vertex -4.14677 -0.484688 13
    endloop
  endfacet
  facet normal 0.973045 0.230613 0
    outer loop
      vertex -4.14677 -0.484688 0
      vertex -3.92322 -1.42793 13
      vertex -3.92322 -1.42793 0
    endloop
  endfacet
  facet normal 0.973045 -0.230613 0
    outer loop
      vertex -4.14677 0.484688 13
      vertex -3.92322 1.42793 0
      vertex -3.92322 1.42793 13
    endloop
  endfacet
  facet normal 0.973045 -0.230613 0
    outer loop
      vertex -3.92322 1.42793 0
      vertex -4.14677 0.484688 13
      vertex -4.14677 0.484688 0
    endloop
  endfacet
  facet normal -0.587785 0.809017 0
    outer loop
      vertex 4.01478 -4.45887 13
      vertex 3 -5.19615 17.25
      vertex 4.01478 -4.45887 17.25
    endloop
  endfacet
  facet normal -0.587785 0.809017 0
    outer loop
      vertex 3 -5.19615 17.25
      vertex 4.01478 -4.45887 13
      vertex 3 -5.19615 13
    endloop
  endfacet
  facet normal -0.951055 -0.309022 0
    outer loop
      vertex 5.86889 1.24747 13
      vertex 5.48127 2.44042 17.25
      vertex 5.48127 2.44042 13
    endloop
  endfacet
  facet normal -0.951055 -0.309022 0
    outer loop
      vertex 5.48127 2.44042 17.25
      vertex 5.86889 1.24747 13
      vertex 5.86889 1.24747 17.25
    endloop
  endfacet
  facet normal -0.994522 -0.104525 0
    outer loop
      vertex 6 0 13
      vertex 5.86889 1.24747 17.25
      vertex 5.86889 1.24747 13
    endloop
  endfacet
  facet normal -0.994522 -0.104525 0
    outer loop
      vertex 5.86889 1.24747 17.25
      vertex 6 0 13
      vertex 6 0 17.25
    endloop
  endfacet
  facet normal -0.866025 -0.5 0
    outer loop
      vertex 5.48127 2.44042 13
      vertex 4.8541 3.52671 17.25
      vertex 4.8541 3.52671 13
    endloop
  endfacet
  facet normal -0.866025 -0.5 0
    outer loop
      vertex 4.8541 3.52671 17.25
      vertex 5.48127 2.44042 13
      vertex 5.48127 2.44042 17.25
    endloop
  endfacet
  facet normal 0.587785 -0.809017 0
    outer loop
      vertex -4.01478 4.45887 13
      vertex -3 5.19615 17.25
      vertex -4.01478 4.45887 17.25
    endloop
  endfacet
  facet normal 0.587785 -0.809017 0
    outer loop
      vertex -3 5.19615 17.25
      vertex -4.01478 4.45887 13
      vertex -3 5.19615 13
    endloop
  endfacet
  facet normal 0 1 -0
    outer loop
      vertex 0.627171 -5.96713 13
      vertex -0.627171 -5.96713 17.25
      vertex 0.627171 -5.96713 17.25
    endloop
  endfacet
  facet normal 0 1 0
    outer loop
      vertex -0.627171 -5.96713 17.25
      vertex 0.627171 -5.96713 13
      vertex -0.627171 -5.96713 13
    endloop
  endfacet
  facet normal -0.994522 0.104525 0
    outer loop
      vertex 5.86889 -1.24747 13
      vertex 6 0 17.25
      vertex 6 0 13
    endloop
  endfacet
  facet normal -0.994522 0.104525 0
    outer loop
      vertex 6 0 17.25
      vertex 5.86889 -1.24747 13
      vertex 5.86889 -1.24747 17.25
    endloop
  endfacet
  facet normal -0.866025 0.5 0
    outer loop
      vertex 4.8541 -3.52671 13
      vertex 5.48127 -2.44042 17.25
      vertex 5.48127 -2.44042 13
    endloop
  endfacet
  facet normal -0.866025 0.5 0
    outer loop
      vertex 5.48127 -2.44042 17.25
      vertex 4.8541 -3.52671 13
      vertex 4.8541 -3.52671 17.25
    endloop
  endfacet
  facet normal -0.406738 -0.913545 0
    outer loop
      vertex 1.8541 5.70634 13
      vertex 3 5.19615 17.25
      vertex 1.8541 5.70634 17.25
    endloop
  endfacet
  facet normal -0.406738 -0.913545 -0
    outer loop
      vertex 3 5.19615 17.25
      vertex 1.8541 5.70634 13
      vertex 3 5.19615 13
    endloop
  endfacet
  facet normal -0.743145 -0.66913 0
    outer loop
      vertex 4.8541 3.52671 13
      vertex 4.01478 4.45887 17.25
      vertex 4.01478 4.45887 13
    endloop
  endfacet
  facet normal -0.743145 -0.66913 0
    outer loop
      vertex 4.01478 4.45887 17.25
      vertex 4.8541 3.52671 13
      vertex 4.8541 3.52671 17.25
    endloop
  endfacet
  facet normal 0.743145 -0.66913 0
    outer loop
      vertex -4.8541 3.52671 17.25
      vertex -4.01478 4.45887 13
      vertex -4.01478 4.45887 17.25
    endloop
  endfacet
  facet normal 0.743145 -0.66913 0
    outer loop
      vertex -4.01478 4.45887 13
      vertex -4.8541 3.52671 17.25
      vertex -4.8541 3.52671 13
    endloop
  endfacet
  facet normal 0.994522 -0.104525 0
    outer loop
      vertex -6 0 17.25
      vertex -5.86889 1.24747 13
      vertex -5.86889 1.24747 17.25
    endloop
  endfacet
  facet normal 0.994522 -0.104525 0
    outer loop
      vertex -5.86889 1.24747 13
      vertex -6 0 17.25
      vertex -6 0 13
    endloop
  endfacet
  facet normal -0.406738 0.913545 0
    outer loop
      vertex 3 -5.19615 13
      vertex 1.8541 -5.70634 17.25
      vertex 3 -5.19615 17.25
    endloop
  endfacet
  facet normal -0.406738 0.913545 0
    outer loop
      vertex 1.8541 -5.70634 17.25
      vertex 3 -5.19615 13
      vertex 1.8541 -5.70634 13
    endloop
  endfacet
  facet normal -0.20791 0.978148 0
    outer loop
      vertex 1.8541 -5.70634 13
      vertex 0.627171 -5.96713 17.25
      vertex 1.8541 -5.70634 17.25
    endloop
  endfacet
  facet normal -0.20791 0.978148 0
    outer loop
      vertex 0.627171 -5.96713 17.25
      vertex 1.8541 -5.70634 13
      vertex 0.627171 -5.96713 13
    endloop
  endfacet
  facet normal 0.951055 -0.309022 0
    outer loop
      vertex -5.86889 1.24747 17.25
      vertex -5.48127 2.44042 13
      vertex -5.48127 2.44042 17.25
    endloop
  endfacet
  facet normal 0.951055 -0.309022 0
    outer loop
      vertex -5.48127 2.44042 13
      vertex -5.86889 1.24747 17.25
      vertex -5.86889 1.24747 13
    endloop
  endfacet
  facet normal 0.20791 -0.978148 0
    outer loop
      vertex -1.8541 5.70634 13
      vertex -0.627171 5.96713 17.25
      vertex -1.8541 5.70634 17.25
    endloop
  endfacet
  facet normal 0.20791 -0.978148 0
    outer loop
      vertex -0.627171 5.96713 17.25
      vertex -1.8541 5.70634 13
      vertex -0.627171 5.96713 13
    endloop
  endfacet
  facet normal 0.743145 0.66913 0
    outer loop
      vertex -4.01478 -4.45887 17.25
      vertex -4.8541 -3.52671 13
      vertex -4.8541 -3.52671 17.25
    endloop
  endfacet
  facet normal 0.743145 0.66913 0
    outer loop
      vertex -4.8541 -3.52671 13
      vertex -4.01478 -4.45887 17.25
      vertex -4.01478 -4.45887 13
    endloop
  endfacet
  facet normal 0.866025 0.5 0
    outer loop
      vertex -4.8541 -3.52671 17.25
      vertex -5.48127 -2.44042 13
      vertex -5.48127 -2.44042 17.25
    endloop
  endfacet
  facet normal 0.866025 0.5 0
    outer loop
      vertex -5.48127 -2.44042 13
      vertex -4.8541 -3.52671 17.25
      vertex -4.8541 -3.52671 13
    endloop
  endfacet
  facet normal 0 -1 0
    outer loop
      vertex -0.627171 5.96713 13
      vertex 0.627171 5.96713 17.25
      vertex -0.627171 5.96713 17.25
    endloop
  endfacet
  facet normal 0 -1 -0
    outer loop
      vertex 0.627171 5.96713 17.25
      vertex -0.627171 5.96713 13
      vertex 0.627171 5.96713 13
    endloop
  endfacet
  facet normal 0.994522 0.104525 0
    outer loop
      vertex -5.86889 -1.24747 17.25
      vertex -6 0 13
      vertex -6 0 17.25
    endloop
  endfacet
  facet normal 0.994522 0.104525 0
    outer loop
      vertex -6 0 13
      vertex -5.86889 -1.24747 17.25
      vertex -5.86889 -1.24747 13
    endloop
  endfacet
  facet normal -0.743145 0.66913 0
    outer loop
      vertex 4.01478 -4.45887 13
      vertex 4.8541 -3.52671 17.25
      vertex 4.8541 -3.52671 13
    endloop
  endfacet
  facet normal -0.743145 0.66913 0
    outer loop
      vertex 4.8541 -3.52671 17.25
      vertex 4.01478 -4.45887 13
      vertex 4.01478 -4.45887 17.25
    endloop
  endfacet
  facet normal 0.866025 -0.5 0
    outer loop
      vertex -5.48127 2.44042 17.25
      vertex -4.8541 3.52671 13
      vertex -4.8541 3.52671 17.25
    endloop
  endfacet
  facet normal 0.866025 -0.5 0
    outer loop
      vertex -4.8541 3.52671 13
      vertex -5.48127 2.44042 17.25
      vertex -5.48127 2.44042 13
    endloop
  endfacet
  facet normal 0.20791 0.978148 -0
    outer loop
      vertex -0.627171 -5.96713 13
      vertex -1.8541 -5.70634 17.25
      vertex -0.627171 -5.96713 17.25
    endloop
  endfacet
  facet normal 0.20791 0.978148 0
    outer loop
      vertex -1.8541 -5.70634 17.25
      vertex -0.627171 -5.96713 13
      vertex -1.8541 -5.70634 13
    endloop
  endfacet
  facet normal 0.406738 -0.913545 0
    outer loop
      vertex -3 5.19615 13
      vertex -1.8541 5.70634 17.25
      vertex -3 5.19615 17.25
    endloop
  endfacet
  facet normal 0.406738 -0.913545 0
    outer loop
      vertex -1.8541 5.70634 17.25
      vertex -3 5.19615 13
      vertex -1.8541 5.70634 13
    endloop
  endfacet
  facet normal -0.587785 -0.809017 0
    outer loop
      vertex 3 5.19615 13
      vertex 4.01478 4.45887 17.25
      vertex 3 5.19615 17.25
    endloop
  endfacet
  facet normal -0.587785 -0.809017 -0
    outer loop
      vertex 4.01478 4.45887 17.25
      vertex 3 5.19615 13
      vertex 4.01478 4.45887 13
    endloop
  endfacet
  facet normal -0.951055 0.309022 0
    outer loop
      vertex 5.48127 -2.44042 13
      vertex 5.86889 -1.24747 17.25
      vertex 5.86889 -1.24747 13
    endloop
  endfacet
  facet normal -0.951055 0.309022 0
    outer loop
      vertex 5.86889 -1.24747 17.25
      vertex 5.48127 -2.44042 13
      vertex 5.48127 -2.44042 17.25
    endloop
  endfacet
  facet normal 0.951055 0.309022 0
    outer loop
      vertex -5.48127 -2.44042 17.25
      vertex -5.86889 -1.24747 13
      vertex -5.86889 -1.24747 17.25
    endloop
  endfacet
  facet normal 0.951055 0.309022 0
    outer loop
      vertex -5.86889 -1.24747 13
      vertex -5.48127 -2.44042 17.25
      vertex -5.48127 -2.44042 13
    endloop
  endfacet
  facet normal 0 0 1
    outer loop
      vertex 4.175 0 13
      vertex 6 0 13
      vertex 5.86889 1.24747 13
    endloop
  endfacet
  facet normal 0 0 1
    outer loop
      vertex 4.06246 0.962821 13
      vertex 5.86889 1.24747 13
      vertex 5.48127 2.44042 13
    endloop
  endfacet
  facet normal 0 0 1
    outer loop
      vertex 6 0 13
      vertex 4.175 0 13
      vertex 5.86889 -1.24747 13
    endloop
  endfacet
  facet normal 0 0 1
    outer loop
      vertex 3.73092 1.87374 13
      vertex 5.48127 2.44042 13
      vertex 4.8541 3.52671 13
    endloop
  endfacet
  facet normal -0 0 1
    outer loop
      vertex 4.06246 -0.962821 13
      vertex 5.86889 -1.24747 13
      vertex 4.175 0 13
    endloop
  endfacet
  facet normal 0 0 1
    outer loop
      vertex 5.86889 -1.24747 13
      vertex 4.06246 -0.962821 13
      vertex 5.48127 -2.44042 13
    endloop
  endfacet
  facet normal 0 0 1
    outer loop
      vertex 5.86889 1.24747 13
      vertex 4.06246 0.962821 13
      vertex 4.175 0 13
    endloop
  endfacet
  facet normal 0 0 1
    outer loop
      vertex 3.19824 2.68364 13
      vertex 4.8541 3.52671 13
      vertex 4.01478 4.45887 13
    endloop
  endfacet
  facet normal 0 0 1
    outer loop
      vertex 5.48127 2.44042 13
      vertex 3.73092 1.87374 13
      vertex 4.06246 0.962821 13
    endloop
  endfacet
  facet normal 0 0 1
    outer loop
      vertex 4.8541 3.52671 13
      vertex 3.19824 2.68364 13
      vertex 3.73092 1.87374 13
    endloop
  endfacet
  facet normal 0 0 1
    outer loop
      vertex 2.49314 3.34886 13
      vertex 4.01478 4.45887 13
      vertex 3 5.19615 13
    endloop
  endfacet
  facet normal 0 0 1
    outer loop
      vertex 4.01478 4.45887 13
      vertex 2.49314 3.34886 13
      vertex 3.19824 2.68364 13
    endloop
  endfacet
  facet normal 0 0 1
    outer loop
      vertex 1.65363 3.83355 13
      vertex 3 5.19615 13
      vertex 1.8541 5.70634 13
    endloop
  endfacet
  facet normal 0 0 1
    outer loop
      vertex 3 5.19615 13
      vertex 1.65363 3.83355 13
      vertex 2.49314 3.34886 13
    endloop
  endfacet
  facet normal 0 0 1
    outer loop
      vertex 1.8541 5.70634 13
      vertex 0.72498 4.11157 13
      vertex 1.65363 3.83355 13
    endloop
  endfacet
  facet normal 0 0 1
    outer loop
      vertex 0.627171 5.96713 13
      vertex 0.72498 4.11157 13
      vertex 1.8541 5.70634 13
    endloop
  endfacet
  facet normal 0 0 1
    outer loop
      vertex 0.627171 5.96713 13
      vertex -0.242754 4.16794 13
      vertex 0.72498 4.11157 13
    endloop
  endfacet
  facet normal -0 0 1
    outer loop
      vertex -0.627171 5.96713 13
      vertex -0.242754 4.16794 13
      vertex 0.627171 5.96713 13
    endloop
  endfacet
  facet normal 0 0 1
    outer loop
      vertex -0.627171 5.96713 13
      vertex -1.1974 3.99961 13
      vertex -0.242754 4.16794 13
    endloop
  endfacet
  facet normal -0 0 1
    outer loop
      vertex -1.8541 5.70634 13
      vertex -1.1974 3.99961 13
      vertex -0.627171 5.96713 13
    endloop
  endfacet
  facet normal 0 0 1
    outer loop
      vertex -1.8541 5.70634 13
      vertex -2.0875 3.61566 13
      vertex -1.1974 3.99961 13
    endloop
  endfacet
  facet normal -0 0 1
    outer loop
      vertex -3 5.19615 13
      vertex -2.0875 3.61566 13
      vertex -1.8541 5.70634 13
    endloop
  endfacet
  facet normal -0 0 1
    outer loop
      vertex -4.01478 4.45887 13
      vertex -2.0875 3.61566 13
      vertex -3 5.19615 13
    endloop
  endfacet
  facet normal 0 0 1
    outer loop
      vertex -2.0875 3.61566 13
      vertex -4.01478 4.45887 13
      vertex -2.86506 3.03678 13
    endloop
  endfacet
  facet normal -0 0 1
    outer loop
      vertex -4.8541 3.52671 13
      vertex -2.86506 3.03678 13
      vertex -4.01478 4.45887 13
    endloop
  endfacet
  facet normal 0 0 1
    outer loop
      vertex -2.86506 3.03678 13
      vertex -4.8541 3.52671 13
      vertex -3.48816 2.2942 13
    endloop
  endfacet
  facet normal -0 0 1
    outer loop
      vertex -5.48127 2.44042 13
      vertex -3.48816 2.2942 13
      vertex -4.8541 3.52671 13
    endloop
  endfacet
  facet normal 0 0 1
    outer loop
      vertex -5.86889 1.24747 13
      vertex -3.92322 1.42793 13
      vertex -5.48127 2.44042 13
    endloop
  endfacet
  facet normal 0 0 1
    outer loop
      vertex -3.48816 2.2942 13
      vertex -5.48127 2.44042 13
      vertex -3.92322 1.42793 13
    endloop
  endfacet
  facet normal -0 0 1
    outer loop
      vertex 3.73092 -1.87374 13
      vertex 5.48127 -2.44042 13
      vertex 4.06246 -0.962821 13
    endloop
  endfacet
  facet normal 0 0 1
    outer loop
      vertex 5.48127 -2.44042 13
      vertex 3.73092 -1.87374 13
      vertex 4.8541 -3.52671 13
    endloop
  endfacet
  facet normal -0 0 1
    outer loop
      vertex 3.19824 -2.68364 13
      vertex 4.8541 -3.52671 13
      vertex 3.73092 -1.87374 13
    endloop
  endfacet
  facet normal 0 0 1
    outer loop
      vertex 4.8541 -3.52671 13
      vertex 3.19824 -2.68364 13
      vertex 4.01478 -4.45887 13
    endloop
  endfacet
  facet normal -0 0 1
    outer loop
      vertex 2.49314 -3.34886 13
      vertex 4.01478 -4.45887 13
      vertex 3.19824 -2.68364 13
    endloop
  endfacet
  facet normal 0 0 1
    outer loop
      vertex 4.01478 -4.45887 13
      vertex 2.49314 -3.34886 13
      vertex 3 -5.19615 13
    endloop
  endfacet
  facet normal -0 0 1
    outer loop
      vertex 1.65363 -3.83355 13
      vertex 3 -5.19615 13
      vertex 2.49314 -3.34886 13
    endloop
  endfacet
  facet normal 0 0 1
    outer loop
      vertex 3 -5.19615 13
      vertex 1.65363 -3.83355 13
      vertex 1.8541 -5.70634 13
    endloop
  endfacet
  facet normal -0 0 1
    outer loop
      vertex 0.72498 -4.11157 13
      vertex 1.8541 -5.70634 13
      vertex 1.65363 -3.83355 13
    endloop
  endfacet
  facet normal 0 0 1
    outer loop
      vertex 0.72498 -4.11157 13
      vertex 0.627171 -5.96713 13
      vertex 1.8541 -5.70634 13
    endloop
  endfacet
  facet normal -0 0 1
    outer loop
      vertex -0.242754 -4.16794 13
      vertex 0.627171 -5.96713 13
      vertex 0.72498 -4.11157 13
    endloop
  endfacet
  facet normal 0 0 1
    outer loop
      vertex -0.242754 -4.16794 13
      vertex -0.627171 -5.96713 13
      vertex 0.627171 -5.96713 13
    endloop
  endfacet
  facet normal 0 0 1
    outer loop
      vertex -1.1974 -3.99961 13
      vertex -0.627171 -5.96713 13
      vertex -0.242754 -4.16794 13
    endloop
  endfacet
  facet normal 0 0 1
    outer loop
      vertex -1.1974 -3.99961 13
      vertex -1.8541 -5.70634 13
      vertex -0.627171 -5.96713 13
    endloop
  endfacet
  facet normal 0 0 1
    outer loop
      vertex -2.0875 -3.61566 13
      vertex -1.8541 -5.70634 13
      vertex -1.1974 -3.99961 13
    endloop
  endfacet
  facet normal 0 0 1
    outer loop
      vertex -4.01478 -4.45887 13
      vertex -2.0875 -3.61566 13
      vertex -2.86506 -3.03678 13
    endloop
  endfacet
  facet normal 0 0 1
    outer loop
      vertex -2.0875 -3.61566 13
      vertex -3 -5.19615 13
      vertex -1.8541 -5.70634 13
    endloop
  endfacet
  facet normal 0 0 1
    outer loop
      vertex -4.8541 -3.52671 13
      vertex -2.86506 -3.03678 13
      vertex -3.48816 -2.2942 13
    endloop
  endfacet
  facet normal 0 0 1
    outer loop
      vertex -5.48127 -2.44042 13
      vertex -3.48816 -2.2942 13
      vertex -3.92322 -1.42793 13
    endloop
  endfacet
  facet normal 0 0 1
    outer loop
      vertex -2.0875 -3.61566 13
      vertex -4.01478 -4.45887 13
      vertex -3 -5.19615 13
    endloop
  endfacet
  facet normal -0 0 1
    outer loop
      vertex -5.86889 -1.24747 13
      vertex -3.92322 -1.42793 13
      vertex -4.14677 -0.484688 13
    endloop
  endfacet
  facet normal 0 0 1
    outer loop
      vertex -3.92322 1.42793 13
      vertex -5.86889 1.24747 13
      vertex -4.14677 0.484688 13
    endloop
  endfacet
  facet normal 0 0 1
    outer loop
      vertex -2.86506 -3.03678 13
      vertex -4.8541 -3.52671 13
      vertex -4.01478 -4.45887 13
    endloop
  endfacet
  facet normal 0 0 1
    outer loop
      vertex -6 0 13
      vertex -4.14677 0.484688 13
      vertex -5.86889 1.24747 13
    endloop
  endfacet
  facet normal 0 0 1
    outer loop
      vertex -3.48816 -2.2942 13
      vertex -5.48127 -2.44042 13
      vertex -4.8541 -3.52671 13
    endloop
  endfacet
  facet normal 0 0 1
    outer loop
      vertex -4.14677 0.484688 13
      vertex -6 0 13
      vertex -4.14677 -0.484688 13
    endloop
  endfacet
  facet normal 0 0 1
    outer loop
      vertex -3.92322 -1.42793 13
      vertex -5.86889 -1.24747 13
      vertex -5.48127 -2.44042 13
    endloop
  endfacet
  facet normal 0 0 1
    outer loop
      vertex -4.14677 -0.484688 13
      vertex -6 0 13
      vertex -5.86889 -1.24747 13
    endloop
  endfacet
  facet normal 0.587785 0.809017 -0
    outer loop
      vertex -3 -5.19615 13
      vertex -4.01478 -4.45887 17.25
      vertex -3 -5.19615 17.25
    endloop
  endfacet
  facet normal 0.587785 0.809017 0
    outer loop
      vertex -4.01478 -4.45887 17.25
      vertex -3 -5.19615 13
      vertex -4.01478 -4.45887 13
    endloop
  endfacet
  facet normal 0.406738 0.913545 -0
    outer loop
      vertex -1.8541 -5.70634 13
      vertex -3 -5.19615 17.25
      vertex -1.8541 -5.70634 17.25
    endloop
  endfacet
  facet normal 0.406738 0.913545 0
    outer loop
      vertex -3 -5.19615 17.25
      vertex -1.8541 -5.70634 13
      vertex -3 -5.19615 13
    endloop
  endfacet
  facet normal -0.20791 -0.978148 0
    outer loop
      vertex 0.627171 5.96713 13
      vertex 1.8541 5.70634 17.25
      vertex 0.627171 5.96713 17.25
    endloop
  endfacet
  facet normal -0.20791 -0.978148 -0
    outer loop
      vertex 1.8541 5.70634 17.25
      vertex 0.627171 5.96713 13
      vertex 1.8541 5.70634 13
    endloop
  endfacet
endsolid OpenSCAD_Model
