<svg height='100px' width='100px'  fill="#000000" xmlns="http://www.w3.org/2000/svg" xmlns:xlink="http://www.w3.org/1999/xlink" version="1.1" x="0px" y="0px" viewBox="0 0 100 100" enable-background="new 0 0 100 100" xml:space="preserve"><g><g><path d="M78.042,5.826c-1.104,0-2,0.896-2,2v15.079C63.541,19.7,53.826,31.781,50,37.551    c-3.828-5.769-13.543-17.847-26.042-14.646V7.826c0-1.104-0.896-2-2-2s-2,0.896-2,2v17.86v3.505    c0,7.821,6.363,14.185,14.185,14.185H50h15.857c7.821,0,14.185-6.363,14.185-14.185v-3.505V7.826    C80.042,6.722,79.146,5.826,78.042,5.826z"></path><path d="M73.368,68.642H26.632c-1.104,0-2,0.896-2,2v8.513c0,0.548,0.225,1.072,0.622,1.45c0.397,0.377,0.925,0.579,1.48,0.547    c11.546-0.564,17.502,11.747,17.559,11.868c0.329,0.704,1.036,1.154,1.813,1.154h7.789c0.777,0,1.484-0.45,1.813-1.154    c0.058-0.125,5.97-12.433,17.559-11.868c0.555,0.033,1.082-0.17,1.48-0.547c0.397-0.378,0.622-0.902,0.622-1.45v-8.513    C75.368,69.537,74.472,68.642,73.368,68.642z"></path></g></g></svg>